<svg width="40" height="40" viewBox="0 0 40 40" fill="none" xmlns="http://www.w3.org/2000/svg">
<path d="M20.0089 0.00415039H19.9989C8.97361 0.00415039 0.00793457 8.97232 0.00793457 20.0001C0.00793457 24.3742 1.41765 28.4284 3.81466 31.7202L1.32267 39.1487L9.0086 36.6917C12.1705 38.7863 15.9422 39.996 20.0089 39.996C31.0341 39.996 39.9998 31.0253 39.9998 20.0001C39.9998 8.97482 31.0341 0.00415039 20.0089 0.00415039ZM31.644 28.2409C31.1616 29.6031 29.247 30.7329 27.7198 31.0628C26.675 31.2853 25.3103 31.4627 20.7162 29.5581C14.8399 27.1236 11.0557 21.1523 10.7607 20.7649C10.4783 20.3775 8.38623 17.6031 8.38623 14.7337C8.38623 11.8642 9.84343 10.467 10.4308 9.86714C10.9132 9.37474 11.7106 9.14979 12.4754 9.14979C12.7228 9.14979 12.9453 9.16229 13.1453 9.17228C13.7326 9.19728 14.0276 9.23227 14.415 10.1596C14.8974 11.3218 16.0722 14.1913 16.2121 14.4862C16.3546 14.7811 16.4971 15.1811 16.2971 15.5685C16.1097 15.9684 15.9447 16.1459 15.6498 16.4858C15.3548 16.8257 15.0749 17.0857 14.7799 17.4506C14.51 17.768 14.205 18.108 14.545 18.6953C14.8849 19.2702 16.0597 21.1873 17.7893 22.727C20.0214 24.7141 21.831 25.349 22.4784 25.6189C22.9608 25.8189 23.5356 25.7714 23.8881 25.3965C24.3355 24.9141 24.8879 24.1142 25.4503 23.3269C25.8502 22.762 26.3551 22.692 26.885 22.892C27.4249 23.0795 30.2818 24.4917 30.8692 24.7841C31.4565 25.079 31.844 25.219 31.9864 25.4665C32.1264 25.7139 32.1264 26.8762 31.644 28.2409Z" fill="white"/>
</svg>
