<svg width="40" height="40" viewBox="0 0 40 40" fill="none" xmlns="http://www.w3.org/2000/svg">
<path d="M38.8096 24.2216C41.7034 11.2196 30.3113 -0.592122 16.933 1.67533C9.6702 -2.83127 -0.000183105 2.26133 -0.000183105 10.9016C-0.000183105 12.911 0.554266 14.7922 1.51831 16.4137C-1.17069 29.4458 10.3146 41.0877 23.6813 38.6654C33.1302 43.6614 43.5715 33.6976 38.8096 24.2216ZM26.0922 32.0628C22.5824 33.5062 16.8064 33.5145 13.3116 31.6849C8.3282 29.0279 7.44242 23.0463 11.7415 23.0463C14.9816 23.0463 13.9559 26.8237 17.2277 28.3636C18.7295 29.0579 21.958 29.1294 23.8344 27.8642C25.6876 26.6239 25.5178 24.6728 24.5104 23.7405C21.8414 21.2766 14.204 22.2555 10.7125 17.942C9.19567 16.0708 8.90929 12.7695 10.7741 10.3755C14.0242 6.19358 23.5614 5.93886 27.6623 9.09698C31.4485 12.027 30.4262 15.916 27.3709 15.916C23.6963 15.916 25.6277 11.108 19.6952 11.108C15.3945 11.108 13.7029 14.1663 16.7315 15.6546C20.8374 17.694 31.3004 17.0131 31.3004 24.9824C31.292 28.2987 29.2591 30.7709 26.0922 32.0628Z" fill="white"/>
</svg>
