<svg width="55" height="52" viewBox="0 0 55 52" fill="none" xmlns="http://www.w3.org/2000/svg">
<path d="M7.50372 21.5039L20.0037 0.00390625L24.5037 8.00391L17.0037 21.5039L23.5037 33.0039L18.5037 41.0039L7.50372 21.5039Z" fill="white"/>
<path d="M25.5037 10.0039L21.0037 18.0039L22.5037 20.0039H31.5037L25.5037 10.0039Z" fill="white"/>
<path d="M23.0037 29.5039L18.5037 21.5039H41.5037L54.0037 43.0039H45.0037L37.0037 29.5039H23.0037Z" fill="white"/>
<path d="M35.5037 31.0039H27.0037L19.5037 43.0039H4.50372L0.00372314 50.5039L24.5037 51.0039L35.5037 31.0039Z" fill="white"/>
<path d="M38.5037 35.0039H35.0037L30.5037 43.0039H43.0037L38.5037 35.0039Z" fill="white"/>
<path d="M16.0037 39.0039L11.5037 31.5039L5.00372 41.0039H14.5037L16.0037 39.0039Z" fill="white"/>
</svg>
