<svg width="379" height="922" viewBox="0 0 379 922" fill="none" xmlns="http://www.w3.org/2000/svg">
<path d="M-33.3435 17.5405C-84.1812 23.2241 -150 66.6532 -150 66.6532L-150 1104.18C-150 1104.18 -103.886 1143.37 -63.6106 1145.79C3.06365 1149.79 52.5079 1096.32 119.318 1098.34C193.51 1100.58 255.316 1116.08 329.5 1118.5C374.123 1119.96 416 1131.08 416 1131.08L416 0.000244141C416 0.000244141 394.472 12.9716 378.555 17.5405C342.356 27.9311 318.993 9.46685 280.621 10.5244C211.497 12.4295 178.386 47.899 109.237 46.7743C51.8192 45.8404 23.5487 11.1801 -33.3435 17.5405Z" fill="#194484"/>
</svg>
