<svg width="210" height="162" viewBox="0 0 210 162" fill="none" xmlns="http://www.w3.org/2000/svg">
<g opacity="0.2">
<path d="M52.1067 86.2528L37.2959 77.3606C37.1464 77.2706 36.9653 77.2569 36.8107 77.3238C36.6561 77.3907 36.5529 77.5293 36.5342 77.6905L35.4053 86.9879L21.4545 78.6123C21.305 78.5222 21.1239 78.5085 20.9693 78.5754C20.8168 78.6426 20.7115 78.7809 20.6928 78.9422L18.0109 101.053C17.9884 101.23 17.996 101.263 18.1498 101.374C18.3036 101.486 18.4294 101.361 18.5955 101.287L34.3076 94.4658L42.3706 90.9658L51.9275 86.8162C52.0958 86.743 52.2792 86.7342 52.2845 86.5544C52.292 86.375 52.2705 86.3511 52.1067 86.2528Z" fill="#84B5FF"/>
<path d="M39.4053 65.6833C40.7032 68.2174 39.6729 71.1769 37.1022 72.2918C34.5315 73.4066 31.3941 72.2575 30.0963 69.7233C28.7984 67.1892 29.8287 64.2297 32.3993 63.1149C34.9702 61.998 38.1075 63.1492 39.4053 65.6833Z" fill="#84B5FF"/>
<path d="M116.17 26.0788L124 27.5515V34.5713L116.17 35.9212C115.569 38.8052 114.427 41.5051 112.857 43.8983L117.348 50.4885L112.378 55.4588L105.886 50.869C103.493 52.4398 100.805 53.5689 97.9088 54.1702L96.4361 62H89.4163L88.0664 54.1702C85.1824 53.5689 82.4825 52.4276 80.0894 50.8567L73.5113 55.3484L68.5411 50.3781L73.1309 43.886C71.56 41.4929 70.431 38.793 69.8296 35.9089L61.9999 34.4363V27.4165L69.8296 26.0665C70.431 23.1702 71.5723 20.4826 73.1432 18.0895L68.6515 11.5115L73.6218 6.54117L80.1262 11.131C82.5193 9.56017 85.2192 8.41885 88.1032 7.82977L89.5759 0H96.5957L97.9456 7.82977C100.842 8.43112 103.53 9.57244 105.923 11.1433L112.501 6.65162L117.471 11.6219L112.881 18.114C114.44 20.4949 115.569 23.1825 116.17 26.0788ZM92.9999 16.4572C84.9737 16.4572 78.4694 22.9739 78.4694 30.9877C78.4694 39.0016 84.9737 45.5182 92.9999 45.5182C101.026 45.5182 107.53 39.0139 107.53 30.9877C107.53 22.9616 101.026 16.4572 92.9999 16.4572Z" fill="#84B5FF"/>
<path d="M162.145 158.754L142.869 148C141.623 147.256 141 146.106 141 144.551C141 142.928 141.656 141.778 142.967 141.101L162.145 130.246V134.203C162.145 134.473 162.047 134.845 161.85 135.319C161.653 135.725 161.358 136.029 160.965 136.232L147.295 143.942C146.77 144.348 146.77 144.754 147.295 145.159L162.145 153.377V158.754Z" fill="#84B5FF"/>
<path d="M178.564 127H182.4L172.86 160.681C172.598 161.56 172.008 162 171.09 162H168.631L178.564 127Z" fill="#84B5FF"/>
<path d="M188.591 130.246L207.768 141.101C209.145 141.845 209.834 142.995 209.834 144.551C209.834 146.106 209.145 147.222 207.768 147.899L188.591 158.754V154.797C188.591 154.594 188.656 154.256 188.787 153.783C188.984 153.309 189.279 152.971 189.672 152.768L203.441 145.159C203.966 144.754 203.966 144.348 203.441 143.942L188.591 135.623V130.246Z" fill="#84B5FF"/>
</g>
</svg>
