<svg width="550" height="395" viewBox="0 0 550 395" fill="none" xmlns="http://www.w3.org/2000/svg">
<mask id="mask0" style="mask-type:alpha" maskUnits="userSpaceOnUse" x="0" y="0" width="550" height="395">
<rect width="550" height="395" fill="#C4C4C4"/>
</mask>
<g mask="url(#mask0)">
<path opacity="0.04" d="M188.318 364.822C287.482 394.608 447.712 365.056 501.084 306.573C554.456 248.09 497.242 178.007 457.934 151.513C445.704 143.316 432.021 137.248 422.036 126.103C400.235 101.697 392.383 62.9501 365.308 45.6071C341.89 30.5869 314.519 43.9184 288.594 34.9589C277.28 31.124 258.679 15.0617 239.563 11.5646C197.284 3.83013 95.2487 43.3048 83.8489 84.0817C72.449 124.859 52.5296 324.035 188.318 364.822Z" fill="#276ED8"/>
<path opacity="0.2" d="M329.75 173.199L342 170.895V159.913L329.75 157.801C328.809 153.289 327.024 149.065 324.566 145.32L331.593 135.01L323.817 127.234L313.66 134.415C309.916 131.957 305.711 130.191 301.18 129.25L298.876 117H287.893L285.781 129.25C281.269 130.191 277.045 131.976 273.301 134.434L263.01 127.407L255.234 135.183L262.415 145.34C259.957 149.084 258.191 153.308 257.25 157.82L245 160.124V171.106L257.25 173.219C258.191 177.75 259.976 181.955 262.434 185.699L255.407 195.99L263.183 203.766L273.359 196.585C277.103 199.043 281.327 200.829 285.839 201.75L288.143 214H299.126L301.238 201.75C305.769 200.809 309.974 199.024 313.718 196.566L324.009 203.593L331.785 195.817L324.605 185.66C327.043 181.935 328.809 177.731 329.75 173.199ZM293.5 188.252C280.943 188.252 270.767 178.057 270.767 165.519C270.767 152.981 280.943 142.786 293.5 142.786C306.057 142.786 316.233 152.962 316.233 165.519C316.233 178.076 306.057 188.252 293.5 188.252Z" fill="#84B5FF"/>
<path d="M65.5601 125.32V227.79C65.5601 232.89 69.7001 237.03 74.8001 237.03H201.6C206.7 237.03 210.84 232.89 210.84 227.79V125.32C210.84 120.22 206.7 116.08 201.6 116.08H74.7901C69.6901 116.09 65.5601 120.22 65.5601 125.32ZM201.73 232.29H138.2L75.0001 232C73.1101 232 71.2501 230.76 71.2501 228.87V124.24C71.2501 122.35 72.7801 120.82 74.6701 120.82H201.73C203.62 120.82 205.15 122.35 205.15 124.24V228.87C205.15 230.76 203.62 232.29 201.73 232.29Z" fill="#66D6A0"/>
<path d="M343.91 235C332.36 235 323 244.36 323 255.91C323 267.46 332.36 276.82 343.91 276.82C355.46 276.82 364.82 267.46 364.82 255.91C364.82 244.36 355.46 235 343.91 235ZM343.91 271.61C335.23 271.61 328.2 264.58 328.2 255.9C328.2 247.22 335.23 240.19 343.91 240.19C352.59 240.19 359.62 247.22 359.62 255.9C359.62 264.58 352.59 271.61 343.91 271.61Z" fill="#66D6A0"/>
<path d="M298.67 173.81V306.8C298.67 310.22 295.9 312.99 292.48 312.99H89.68C86.26 312.99 83.49 310.22 83.49 306.8V173.81C83.49 165.92 89.89 159.51 97.79 159.51H284.37C292.27 159.51 298.67 165.92 298.67 173.81Z" fill="white" stroke="#84B5FF" stroke-miterlimit="10"/>
<path d="M298.67 173.81V174.41H83.49V173.81C83.49 165.92 89.89 159.51 97.79 159.51H284.37C292.27 159.51 298.67 165.92 298.67 173.81Z" fill="#84B5FF"/>
<path opacity="0.2" d="M216.55 185.04H205.17C204.16 185.04 203.34 184.22 203.34 183.21C203.34 182.2 204.16 181.38 205.17 181.38H216.55C217.56 181.38 218.38 182.2 218.38 183.21C218.38 184.22 217.56 185.04 216.55 185.04Z" fill="#276ED8"/>
<path opacity="0.2" d="M238.06 185.04H226.68C225.67 185.04 224.85 184.22 224.85 183.21C224.85 182.2 225.67 181.38 226.68 181.38H238.06C239.07 181.38 239.89 182.2 239.89 183.21C239.9 184.22 239.08 185.04 238.06 185.04Z" fill="#276ED8"/>
<path opacity="0.2" d="M259.91 185.04H248.53C247.52 185.04 246.7 184.22 246.7 183.21C246.7 182.2 247.52 181.38 248.53 181.38H259.91C260.92 181.38 261.74 182.2 261.74 183.21C261.74 184.22 260.92 185.04 259.91 185.04Z" fill="#276ED8"/>
<path opacity="0.2" d="M281.42 185.04H270.04C269.03 185.04 268.21 184.22 268.21 183.21C268.21 182.2 269.03 181.38 270.04 181.38H281.42C282.43 181.38 283.25 182.2 283.25 183.21C283.26 184.22 282.44 185.04 281.42 185.04Z" fill="#276ED8"/>
<path opacity="0.2" d="M258.72 213.58H210.9C209.97 213.58 209.22 212.83 209.22 211.9V206.13C209.22 205.2 209.97 204.45 210.9 204.45H258.72C259.65 204.45 260.4 205.2 260.4 206.13V211.9C260.4 212.82 259.65 213.58 258.72 213.58Z" fill="#276ED8"/>
<path opacity="0.2" d="M245.07 224.6H210.84C209.94 224.6 209.22 223.87 209.22 222.98C209.22 222.08 209.95 221.36 210.84 221.36H245.07C245.97 221.36 246.69 222.09 246.69 222.98C246.69 223.87 245.97 224.6 245.07 224.6Z" fill="#276ED8"/>
<path opacity="0.2" d="M279.32 232.44H210.84C209.94 232.44 209.22 231.71 209.22 230.82C209.22 229.92 209.95 229.2 210.84 229.2H279.32C280.22 229.2 280.94 229.93 280.94 230.82C280.94 231.71 280.22 232.44 279.32 232.44Z" fill="#276ED8"/>
<path opacity="0.2" d="M279.32 240.28H210.84C209.94 240.28 209.22 239.55 209.22 238.66C209.22 237.76 209.95 237.04 210.84 237.04H279.32C280.22 237.04 280.94 237.77 280.94 238.66C280.94 239.55 280.22 240.28 279.32 240.28Z" fill="#276ED8"/>
<path opacity="0.2" d="M279.099 248.24H210.619C209.719 248.24 208.999 247.51 208.999 246.62C208.999 245.72 209.729 245 210.619 245H279.099C279.999 245 280.719 245.73 280.719 246.62C280.719 247.51 279.999 248.24 279.099 248.24Z" fill="#276ED8"/>
<path opacity="0.1" d="M298.67 284.34V306.8C298.67 310.22 295.9 312.99 292.48 312.99H89.68C86.26 312.99 83.49 310.22 83.49 306.8V284.34H298.67Z" fill="#84B5FF"/>
<path d="M265.99 167.65C265.99 168.68 265.16 169.51 264.13 169.51C263.1 169.51 262.27 168.68 262.27 167.65C262.27 166.62 263.1 165.79 264.13 165.79C265.15 165.79 265.99 166.62 265.99 167.65Z" fill="#84B5FF"/>
<path d="M276.17 167.65C276.17 168.68 275.34 169.51 274.31 169.51C273.28 169.51 272.45 168.68 272.45 167.65C272.45 166.62 273.28 165.79 274.31 165.79C275.33 165.79 276.17 166.62 276.17 167.65Z" fill="#84B5FF"/>
<path d="M285.9 167.65C285.9 168.68 285.07 169.51 284.04 169.51C283.01 169.51 282.18 168.68 282.18 167.65C282.18 166.62 283.01 165.79 284.04 165.79C285.07 165.79 285.9 166.62 285.9 167.65Z" fill="#84B5FF"/>
<path opacity="0.1" d="M299 174.255V306.829C299 310.239 296.232 313 292.815 313H90.1848C86.7677 313 84 310.239 84 306.829V174.255C84 166.39 90.3946 160 98.288 160H284.712C292.605 160 299 166.39 299 174.255Z" stroke="#276ED8" stroke-miterlimit="10"/>
<g filter="url(#filter0_d)">
<path d="M190.63 191.58V253.43C190.63 254.86 189.47 256.01 188.05 256.01H105.58C104.16 256.01 103 254.86 103 253.43V191.58C103 190.15 104.16 189 105.58 189H188.05C189.48 189.01 190.63 190.16 190.63 191.58Z" fill="#06B25F"/>
</g>
<path d="M190.63 230.99V253.43C190.63 254.86 189.47 256.01 188.05 256.01H105.58C104.16 256.01 103 254.86 103 253.43V231.84C103 231.84 117.07 207.58 127.05 207.58C139.49 207.58 146.56 235.89 152.74 235.89C158.92 235.89 166.97 216.42 175.15 216.42C180.07 216.41 186.37 224.5 190.63 230.99Z" fill="#66D6A0"/>
<path d="M179.38 202.87C179.38 206.02 176.82 208.58 173.67 208.58C170.52 208.58 167.96 206.02 167.96 202.87C167.96 199.72 170.52 197.16 173.67 197.16C176.83 197.17 179.38 199.72 179.38 202.87Z" fill="#66D6A0"/>
<g filter="url(#filter1_d)">
<path d="M246.88 104.01V146.38C246.88 148.6 245.08 150.39 242.87 150.39H180.87C178.65 150.39 176.86 148.59 176.86 146.38V104.01C176.86 101.79 178.66 100 180.87 100H242.87C245.08 100 246.88 101.8 246.88 104.01Z" fill="#84B5FF"/>
</g>
<path d="M246.88 140.72V146.39C246.88 148.61 245.08 150.4 242.87 150.4H180.87C178.65 150.4 176.86 148.6 176.86 146.39V140.72H246.88Z" fill="#276ED8"/>
<path opacity="0.8" d="M214.03 146.03C214.03 146.5 214.17 146.93 214.42 147.3H183.1C182.4 147.3 181.83 146.74 181.83 146.03C181.83 145.33 182.4 144.76 183.1 144.76H214.42C214.18 145.13 214.03 145.56 214.03 146.03Z" fill="#84B5FF"/>
<path d="M224.86 146.03C224.86 146.73 224.29 147.3 223.59 147.3H214.43C214.18 146.93 214.04 146.5 214.04 146.03C214.04 145.56 214.18 145.13 214.43 144.76H223.59C224.28 144.77 224.86 145.34 224.86 146.03Z" fill="#84B5FF"/>
<path d="M218.53 146.03C218.53 146.5 218.39 146.93 218.14 147.3C217.74 147.89 217.06 148.28 216.28 148.28C215.51 148.28 214.83 147.89 214.43 147.3C214.18 146.93 214.04 146.5 214.04 146.03C214.04 145.56 214.18 145.13 214.43 144.76C214.83 144.17 215.51 143.78 216.28 143.78C217.06 143.78 217.74 144.17 218.14 144.76C218.38 145.13 218.53 145.56 218.53 146.03Z" fill="white"/>
<path d="M217.38 146.03C217.38 146.64 216.89 147.13 216.28 147.13C215.67 147.13 215.18 146.64 215.18 146.03C215.18 145.42 215.67 144.93 216.28 144.93C216.89 144.93 217.38 145.42 217.38 146.03Z" fill="#84B5FF"/>
<path d="M234.3 147.15V145.04C234.3 144.76 234.59 144.58 234.84 144.71L236.95 145.77C237.22 145.91 237.22 146.3 236.95 146.43L234.84 147.49C234.59 147.61 234.3 147.43 234.3 147.15Z" fill="#84B5FF"/>
<path d="M239.99 146.74V145.45C239.99 145.28 240.13 145.17 240.25 145.25L241.27 145.9C241.4 145.98 241.4 146.22 241.27 146.31L240.25 146.96C240.13 147.02 239.99 146.91 239.99 146.74Z" fill="#84B5FF"/>
<path d="M241.37 146.74V145.45C241.37 145.28 241.51 145.17 241.63 145.25L242.65 145.9C242.78 145.98 242.78 146.22 242.65 146.31L241.63 146.96C241.51 147.02 241.37 146.91 241.37 146.74Z" fill="#84B5FF"/>
<path d="M231.7 146.74V145.45C231.7 145.28 231.56 145.17 231.44 145.25L230.42 145.9C230.29 145.98 230.29 146.22 230.42 146.31L231.44 146.96C231.56 147.02 231.7 146.91 231.7 146.74Z" fill="#84B5FF"/>
<path d="M230.32 146.74V145.45C230.32 145.28 230.18 145.17 230.06 145.25L229.04 145.9C228.91 145.98 228.91 146.22 229.04 146.31L230.06 146.96C230.18 147.02 230.32 146.91 230.32 146.74Z" fill="#84B5FF"/>
<path d="M224.009 123.875C225.602 117.169 221.456 110.441 214.749 108.849C208.043 107.257 201.315 111.403 199.723 118.109C198.131 124.816 202.277 131.543 208.983 133.135C215.69 134.727 222.417 130.582 224.009 123.875Z" fill="#FBF8FF"/>
<path d="M208.57 124.84V117.16C208.57 116.31 209.51 115.8 210.22 116.26L216.12 120.1C216.77 120.52 216.77 121.47 216.12 121.89L210.22 125.73C209.51 126.2 208.57 125.69 208.57 124.84Z" fill="#276ED8"/>
<g filter="url(#filter2_d)">
<path d="M116.918 312.08L125 310.56V303.314L116.918 301.92C116.297 298.943 115.119 296.156 113.497 293.686L118.134 286.883L113.003 281.752L106.302 286.49C103.831 284.869 101.057 283.703 98.0673 283.082L96.5471 275H89.3008L87.9074 283.082C84.9303 283.703 82.1433 284.881 79.673 286.503L72.8828 281.866L67.7522 286.997L72.4901 293.698C70.8686 296.169 69.7031 298.956 69.0823 301.933L61 303.453V310.699L69.0823 312.093C69.7031 315.082 70.8812 317.857 72.5028 320.327L67.8662 327.117L72.9968 332.248L79.711 327.51C82.1813 329.131 84.9683 330.31 87.9454 330.918L89.4655 339H96.7118L98.1053 330.918C101.095 330.297 103.869 329.119 106.34 327.497L113.13 332.134L118.26 327.003L113.523 320.302C115.131 317.844 116.297 315.07 116.918 312.08ZM93 322.012C84.715 322.012 78.0008 315.285 78.0008 307.013C78.0008 298.74 84.715 292.013 93 292.013C101.285 292.013 107.999 298.728 107.999 307.013C107.999 315.298 101.285 322.012 93 322.012Z" fill="#84B5FF"/>
</g>
<g filter="url(#filter3_d)">
<path d="M50.687 273.322L56.5437 275.375L59.2811 270.649L54.5225 266.688C55.2387 264.508 55.5252 262.233 55.3978 260.022L61 257.333L59.5835 252.051L53.4244 252.623C52.4217 250.635 51.0371 248.821 49.3342 247.294L51.3873 241.439L46.6605 238.702L42.6976 243.459C40.5172 242.743 38.2414 242.457 36.0292 242.584L33.3395 237L28.0557 238.416L28.6287 244.589C26.6393 245.591 24.8249 246.975 23.2971 248.678L17.4403 246.625L14.7029 251.351L19.4615 255.312C18.7454 257.508 18.4589 259.751 18.5862 261.978L13 264.667L14.4164 269.949L20.5915 269.377C21.5941 271.365 22.9629 273.179 24.6817 274.706L22.6286 280.561L27.3554 283.298L31.3183 278.541C33.5146 279.257 35.7586 279.543 37.9868 279.416L40.6764 285L45.9602 283.584L45.3873 277.411C47.3448 276.425 49.1591 275.056 50.687 273.322ZM31.3183 270.793C25.9072 267.674 24.061 260.753 27.1804 255.344C30.2997 249.935 37.2228 248.089 42.6339 251.207C48.0451 254.326 49.8912 261.247 46.7719 266.656C43.6525 272.065 36.7295 273.911 31.3183 270.793Z" fill="#84B5FF"/>
</g>
<rect x="82" y="232" width="21" height="5" fill="#66D6A0"/>
<g clip-path="url(#clip0)">
<path d="M168.365 327.007L178.615 276.967C180.651 267.033 190.125 260.924 199.509 263.652L203.75 264.884C205.273 265.327 206.849 265.553 208.436 265.556L217.905 265.576L256.868 265.661L267.13 265.683C268.883 265.687 270.632 265.456 272.332 264.994L277.113 263.695C287.952 260.751 299.268 267.445 301.75 278.452L314.533 335.156C316.671 344.639 311.296 353.703 302.066 356.305C291.799 359.2 280.707 352.761 277.881 342.434L273.492 326.397C272.581 323.07 269.588 320.66 266.192 320.503L209.289 317.877C206.212 317.735 203.528 319.758 202.716 322.817L198.835 337.441C196.364 346.754 186.868 351.261 178.358 347.299C170.925 343.84 166.688 335.193 168.365 327.007Z" fill="url(#paint0_linear)"/>
<path opacity="0.3" d="M218.231 291.952L249.928 292.839C252.75 292.918 255.048 290.304 255.048 287.001V265.671L213.456 265.568V286.07C213.456 289.245 215.589 291.878 218.231 291.952Z" fill="url(#paint1_linear)"/>
<path d="M260.699 286.868C260.699 296.139 268.264 303.901 277.724 304.209C287.327 304.522 295.22 297.056 295.22 287.529C295.22 278.001 287.327 270.234 277.724 270.179C268.263 270.125 260.699 277.597 260.699 286.868Z" fill="url(#paint2_linear)"/>
<path d="M241.39 308.931C241.39 316.425 247.4 322.791 254.898 323.154C262.487 323.523 268.707 317.615 268.707 309.955C268.707 302.294 262.487 295.921 254.898 295.72C247.401 295.522 241.39 301.438 241.39 308.931Z" fill="#68A4FF"/>
<path d="M243.994 309.029C243.994 315.078 248.852 320.207 254.898 320.487C261.004 320.771 265.998 316.01 265.998 309.853C265.998 303.696 261.004 298.562 254.898 298.387C248.852 298.215 243.994 302.979 243.994 309.029Z" fill="#4389F2"/>
<path d="M247.616 309.205C247.616 312.607 250.348 315.491 253.748 315.649C257.182 315.808 259.99 313.132 259.99 309.67C259.99 306.207 257.182 303.32 253.748 303.222C250.348 303.124 247.616 305.804 247.616 309.205Z" fill="#276ED8"/>
<path d="M201.16 307.257C201.16 314.478 206.739 320.601 213.696 320.939C220.735 321.28 226.501 315.582 226.501 308.206C226.501 300.831 220.735 294.701 213.696 294.515C206.739 294.331 201.16 300.037 201.16 307.257Z" fill="#68A4FF"/>
<path d="M203.576 307.347C203.576 313.175 208.086 318.109 213.696 318.369C219.36 318.631 223.99 314.04 223.99 308.111C223.99 302.183 219.359 297.245 213.696 297.083C208.086 296.923 203.576 301.519 203.576 307.347Z" fill="#4389F2"/>
<path d="M205.913 307.499C205.913 310.9 208.645 313.784 212.045 313.943C215.479 314.102 218.287 311.425 218.287 307.963C218.287 304.501 215.479 301.614 212.045 301.516C208.645 301.418 205.913 304.098 205.913 307.499Z" fill="#276ED8"/>
<path d="M260.694 276.729C261.858 276.741 262.803 275.808 262.803 274.643V270.938C262.803 269.773 261.858 268.825 260.694 268.82C259.533 268.815 258.593 269.75 258.593 270.911V274.605C258.593 275.765 259.533 276.716 260.694 276.729Z" fill="#5483FC"/>
<path d="M209.549 276.108C210.61 276.12 211.47 275.228 211.47 274.117V270.578C211.47 269.466 210.609 268.56 209.549 268.555C208.49 268.55 207.632 269.445 207.632 270.553V274.079C207.632 275.188 208.49 276.097 209.549 276.108Z" fill="url(#paint3_linear)"/>
<path d="M275.913 274.867L279.538 274.901C280.607 274.911 281.474 275.773 281.474 276.825V280.963C281.474 281.338 281.362 281.703 281.151 282.012L279.511 284.416C279.153 284.941 278.549 285.249 277.903 285.238L277.543 285.231C276.897 285.22 276.296 284.891 275.939 284.355L274.313 281.908C274.105 281.594 273.993 281.228 273.993 280.856V276.743C273.994 275.697 274.852 274.857 275.913 274.867Z" fill="url(#paint4_linear)"/>
<path d="M275.913 299.451L279.538 299.556C280.607 299.587 281.474 298.759 281.474 297.706V293.569C281.474 293.194 281.362 292.825 281.151 292.508L279.511 290.04C279.153 289.501 278.549 289.169 277.903 289.156L277.543 289.149C276.897 289.135 276.296 289.441 275.939 289.964L274.313 292.348C274.105 292.653 273.993 293.015 273.993 293.388V297.501C273.994 298.547 274.852 299.42 275.913 299.451Z" fill="url(#paint5_linear)"/>
<path d="M290.332 285.63V289.239C290.332 290.299 289.452 291.139 288.369 291.116L284.128 291.023C283.745 291.014 283.371 290.895 283.052 290.68L280.575 289.013C280.035 288.649 279.71 288.047 279.71 287.409V287.054C279.71 286.416 280.035 285.826 280.575 285.483L283.052 283.911C283.371 283.708 283.745 283.603 284.128 283.61L288.369 283.679C289.453 283.697 290.332 284.57 290.332 285.63Z" fill="url(#paint6_linear)"/>
<path d="M265.361 285.187V288.727C265.361 289.766 266.207 290.628 267.253 290.651L271.382 290.742C271.758 290.75 272.125 290.648 272.438 290.449L274.882 288.896C275.418 288.555 275.741 287.969 275.741 287.333V286.979C275.741 286.343 275.418 285.744 274.882 285.382L272.438 283.736C272.125 283.525 271.758 283.409 271.382 283.402L267.253 283.336C266.207 283.319 265.361 284.148 265.361 285.187Z" fill="url(#paint7_linear)"/>
<path d="M275.103 275.047L278.729 275.082C279.797 275.092 280.665 275.953 280.665 277.006V281.143C280.665 281.518 280.553 281.883 280.342 282.192L278.702 284.596C278.344 285.121 277.74 285.43 277.094 285.418L276.734 285.412C276.088 285.4 275.487 285.071 275.13 284.535L273.504 282.089C273.295 281.774 273.184 281.409 273.184 281.036V276.924C273.185 275.877 274.043 275.037 275.103 275.047Z" fill="#5483FC"/>
<path d="M275.103 299.631L278.729 299.736C279.797 299.767 280.665 298.939 280.665 297.886V293.749C280.665 293.374 280.553 293.005 280.342 292.688L278.702 290.22C278.344 289.681 277.74 289.35 277.094 289.336L276.734 289.329C276.088 289.315 275.487 289.621 275.13 290.144L273.504 292.528C273.295 292.834 273.184 293.195 273.184 293.568V297.681C273.185 298.727 274.043 299.6 275.103 299.631Z" fill="#5483FC"/>
<path d="M289.523 285.81V289.42C289.523 290.48 288.643 291.32 287.56 291.296L283.319 291.203C282.936 291.194 282.562 291.075 282.243 290.86L279.766 289.193C279.226 288.829 278.901 288.227 278.901 287.589V287.234C278.901 286.597 279.226 286.007 279.766 285.663L282.243 284.091C282.562 283.888 282.936 283.783 283.319 283.79L287.56 283.859C288.644 283.877 289.523 284.75 289.523 285.81Z" fill="#5483FC"/>
<path d="M264.552 285.367V288.907C264.552 289.946 265.398 290.808 266.444 290.831L270.573 290.922C270.949 290.93 271.316 290.829 271.629 290.629L274.073 289.076C274.609 288.735 274.932 288.149 274.932 287.513V287.159C274.932 286.523 274.609 285.924 274.073 285.562L271.629 283.916C271.316 283.705 270.949 283.589 270.573 283.583L266.444 283.516C265.398 283.499 264.552 284.328 264.552 285.367Z" fill="#5483FC"/>
<path d="M207.986 285.765C207.986 294.607 201.185 301.553 192.9 301.283C184.732 301.016 178.194 293.815 178.194 285.194C178.194 276.574 184.732 269.623 192.9 269.669C201.185 269.716 207.986 276.922 207.986 285.765Z" fill="url(#paint8_linear)"/>
<path d="M189.119 275.506C189.119 277.723 190.809 279.544 192.902 279.574C195 279.604 196.708 277.819 196.708 275.587C196.708 273.356 195 271.535 192.902 271.52C190.809 271.505 189.119 273.29 189.119 275.506Z" fill="url(#paint9_linear)"/>
<path d="M189.119 295.3C189.119 297.516 190.809 299.366 192.902 299.431C195 299.496 196.708 297.741 196.708 295.51C196.708 293.278 195 291.429 192.902 291.378C190.809 291.327 189.119 293.083 189.119 295.3Z" fill="url(#paint10_linear)"/>
<path d="M202.331 281.597C200.206 281.564 198.488 283.348 198.488 285.582C198.488 287.817 200.206 289.667 202.331 289.715C204.464 289.764 206.199 287.98 206.199 285.73C206.199 283.481 204.464 281.631 202.331 281.597Z" fill="url(#paint11_linear)"/>
<path d="M183.62 281.303C181.561 281.27 179.897 283.027 179.897 285.227C179.897 287.426 181.561 289.246 183.62 289.293C185.686 289.34 187.367 287.583 187.367 285.37C187.367 283.156 185.686 281.335 183.62 281.303Z" fill="url(#paint12_linear)"/>
<path d="M188.31 275.687C188.31 277.903 190 279.725 192.091 279.754C194.19 279.784 195.898 277.999 195.898 275.767C195.898 273.536 194.19 271.715 192.091 271.7C190 271.685 188.31 273.47 188.31 275.687Z" fill="#5483FC"/>
<path d="M188.31 295.48C188.31 297.697 190 299.547 192.091 299.612C194.19 299.676 195.898 297.921 195.898 295.69C195.898 293.459 194.19 291.609 192.091 291.558C190 291.507 188.31 293.264 188.31 295.48Z" fill="#5483FC"/>
<path d="M201.522 281.777C199.397 281.744 197.679 283.528 197.679 285.763C197.679 287.997 199.397 289.847 201.522 289.896C203.655 289.944 205.39 288.16 205.39 285.911C205.39 283.661 203.655 281.811 201.522 281.777Z" fill="#5483FC"/>
<path d="M182.811 281.483C180.752 281.45 179.088 283.207 179.088 285.407C179.088 287.606 180.752 289.426 182.811 289.473C184.877 289.52 186.557 287.763 186.557 285.55C186.557 283.337 184.877 281.515 182.811 281.483Z" fill="#5483FC"/>
<path d="M245.3 346.18H216.09C214.94 346.18 214 345.25 214 344.09C214 342.94 214.93 342 216.09 342H245.3C246.45 342 247.39 342.93 247.39 344.09C247.39 345.24 246.45 346.18 245.3 346.18Z" fill="#66D6A0"/>
<path d="M245.3 356.61H216.09C214.94 356.61 214 355.68 214 354.52C214 353.37 214.93 352.43 216.09 352.43H245.3C246.45 352.43 247.39 353.36 247.39 354.52C247.39 355.67 246.45 356.61 245.3 356.61Z" fill="#66D6A0"/>
</g>
</g>
<defs>
<filter id="filter0_d" x="93" y="183" width="107.63" height="87.01" filterUnits="userSpaceOnUse" color-interpolation-filters="sRGB">
<feFlood flood-opacity="0" result="BackgroundImageFix"/>
<feColorMatrix in="SourceAlpha" type="matrix" values="0 0 0 0 0 0 0 0 0 0 0 0 0 0 0 0 0 0 127 0" result="hardAlpha"/>
<feOffset dy="4"/>
<feGaussianBlur stdDeviation="5"/>
<feColorMatrix type="matrix" values="0 0 0 0 0.0901961 0 0 0 0 0.0392157 0 0 0 0 0.396078 0 0 0 0.25 0"/>
<feBlend mode="normal" in2="BackgroundImageFix" result="effect1_dropShadow"/>
<feBlend mode="normal" in="SourceGraphic" in2="effect1_dropShadow" result="shape"/>
</filter>
<filter id="filter1_d" x="166.86" y="94" width="90.02" height="70.39" filterUnits="userSpaceOnUse" color-interpolation-filters="sRGB">
<feFlood flood-opacity="0" result="BackgroundImageFix"/>
<feColorMatrix in="SourceAlpha" type="matrix" values="0 0 0 0 0 0 0 0 0 0 0 0 0 0 0 0 0 0 127 0" result="hardAlpha"/>
<feOffset dy="4"/>
<feGaussianBlur stdDeviation="5"/>
<feColorMatrix type="matrix" values="0 0 0 0 0.0901961 0 0 0 0 0.0392157 0 0 0 0 0.396078 0 0 0 0.25 0"/>
<feBlend mode="normal" in2="BackgroundImageFix" result="effect1_dropShadow"/>
<feBlend mode="normal" in="SourceGraphic" in2="effect1_dropShadow" result="shape"/>
</filter>
<filter id="filter2_d" x="51" y="269" width="84" height="84" filterUnits="userSpaceOnUse" color-interpolation-filters="sRGB">
<feFlood flood-opacity="0" result="BackgroundImageFix"/>
<feColorMatrix in="SourceAlpha" type="matrix" values="0 0 0 0 0 0 0 0 0 0 0 0 0 0 0 0 0 0 127 0" result="hardAlpha"/>
<feOffset dy="4"/>
<feGaussianBlur stdDeviation="5"/>
<feColorMatrix type="matrix" values="0 0 0 0 0.0885677 0 0 0 0 0.0395834 0 0 0 0 0.395833 0 0 0 0.25 0"/>
<feBlend mode="normal" in2="BackgroundImageFix" result="effect1_dropShadow"/>
<feBlend mode="normal" in="SourceGraphic" in2="effect1_dropShadow" result="shape"/>
</filter>
<filter id="filter3_d" x="3" y="231" width="68" height="68" filterUnits="userSpaceOnUse" color-interpolation-filters="sRGB">
<feFlood flood-opacity="0" result="BackgroundImageFix"/>
<feColorMatrix in="SourceAlpha" type="matrix" values="0 0 0 0 0 0 0 0 0 0 0 0 0 0 0 0 0 0 127 0" result="hardAlpha"/>
<feOffset dy="4"/>
<feGaussianBlur stdDeviation="5"/>
<feColorMatrix type="matrix" values="0 0 0 0 0.0885677 0 0 0 0 0.0395834 0 0 0 0 0.395833 0 0 0 0.25 0"/>
<feBlend mode="normal" in2="BackgroundImageFix" result="effect1_dropShadow"/>
<feBlend mode="normal" in="SourceGraphic" in2="effect1_dropShadow" result="shape"/>
</filter>
<linearGradient id="paint0_linear" x1="272.642" y1="261.445" x2="214.608" y2="368.92" gradientUnits="userSpaceOnUse">
<stop stop-color="#276ED8"/>
<stop offset="0.9964" stop-color="#84B5FF"/>
</linearGradient>
<linearGradient id="paint1_linear" x1="222" y1="293" x2="245.5" y2="266" gradientUnits="userSpaceOnUse">
<stop stop-color="#84B5FF"/>
<stop offset="0.9964" stop-color="#276ED8"/>
</linearGradient>
<linearGradient id="paint2_linear" x1="268.257" y1="303.04" x2="292.094" y2="264.36" gradientUnits="userSpaceOnUse">
<stop stop-color="#84B5FF"/>
<stop offset="0.805159" stop-color="#276ED8"/>
</linearGradient>
<linearGradient id="paint3_linear" x1="217.753" y1="248.434" x2="212.547" y2="263.52" gradientUnits="userSpaceOnUse">
<stop stop-color="#AA80F9"/>
<stop offset="0.9964" stop-color="#6165D7"/>
</linearGradient>
<linearGradient id="paint4_linear" x1="260.397" y1="295.973" x2="264.563" y2="291.981" gradientUnits="userSpaceOnUse">
<stop stop-color="#AA80F9"/>
<stop offset="0.9964" stop-color="#6165D7"/>
</linearGradient>
<linearGradient id="paint5_linear" x1="268.305" y1="304.225" x2="272.471" y2="300.233" gradientUnits="userSpaceOnUse">
<stop stop-color="#AA80F9"/>
<stop offset="0.9964" stop-color="#6165D7"/>
</linearGradient>
<linearGradient id="paint6_linear" x1="268.322" y1="304.242" x2="272.487" y2="300.25" gradientUnits="userSpaceOnUse">
<stop stop-color="#AA80F9"/>
<stop offset="0.9964" stop-color="#6165D7"/>
</linearGradient>
<linearGradient id="paint7_linear" x1="260.433" y1="296.01" x2="264.599" y2="292.018" gradientUnits="userSpaceOnUse">
<stop stop-color="#AA80F9"/>
<stop offset="0.9964" stop-color="#6165D7"/>
</linearGradient>
<linearGradient id="paint8_linear" x1="183.999" y1="300.37" x2="200.565" y2="274.041" gradientUnits="userSpaceOnUse">
<stop stop-color="#84B5FF"/>
<stop offset="0.9964" stop-color="#276ED8"/>
</linearGradient>
<linearGradient id="paint9_linear" x1="172.405" y1="296.113" x2="178.086" y2="290.448" gradientUnits="userSpaceOnUse">
<stop stop-color="#AA80F9"/>
<stop offset="0.9964" stop-color="#6165D7"/>
</linearGradient>
<linearGradient id="paint10_linear" x1="182.306" y1="306.042" x2="187.987" y2="300.377" gradientUnits="userSpaceOnUse">
<stop stop-color="#AA80F9"/>
<stop offset="0.9964" stop-color="#6165D7"/>
</linearGradient>
<linearGradient id="paint11_linear" x1="182.161" y1="305.897" x2="187.842" y2="300.232" gradientUnits="userSpaceOnUse">
<stop stop-color="#AA80F9"/>
<stop offset="0.9964" stop-color="#6165D7"/>
</linearGradient>
<linearGradient id="paint12_linear" x1="172.626" y1="296.335" x2="178.307" y2="290.67" gradientUnits="userSpaceOnUse">
<stop stop-color="#AA80F9"/>
<stop offset="0.9964" stop-color="#6165D7"/>
</linearGradient>
<clipPath id="clip0">
<rect width="147" height="94" fill="white" transform="matrix(-1 0 0 1 315 263)"/>
</clipPath>
</defs>
</svg>
