<svg width="379" height="974" viewBox="0 0 379 974" fill="none" xmlns="http://www.w3.org/2000/svg">
<path d="M-116.781 87.6604C-178.305 102.076 -255.553 164.598 -255.553 164.598L-236.91 1167.16C-236.91 1167.16 -178.145 1207.99 -128.942 1204.99C-47.4877 1200.01 9.15164 1127.69 90.6386 1120.29C181.129 1112.06 225.672 1152.47 316.165 1144.47C370.598 1139.65 454.082 1116.3 454.082 1116.3L429.199 -0.0063012C429.199 -0.0063012 403.85 18.9435 384.774 26.8486C341.389 44.8265 311.709 25.8257 265.055 32.7767C181.013 45.2983 143.059 93.3131 58.7831 102.155C-11.1943 109.496 -47.9297 71.5275 -116.781 87.6604Z" fill="#194484" fill-opacity="0.07"/>
</svg>
