<svg width="204" height="202" viewBox="0 0 204 202" fill="none" xmlns="http://www.w3.org/2000/svg">
<g opacity="0.2" clip-path="url(#clip0)">
<path d="M129.763 39.4721C120.745 30.4543 120.745 15.781 129.763 6.76316C138.781 -2.25471 153.454 -2.25471 162.471 6.76316C170.122 14.4136 171.281 25.7917 165.951 34.6768C165.951 34.6768 165.568 35.3192 166.085 35.8359C169.035 38.7856 177.885 47.636 177.885 47.636C180.234 49.9845 180.793 53.2686 178.71 55.3518L178.351 55.71C176.268 57.7932 172.984 57.2343 170.636 54.8856C170.636 54.8856 161.804 46.0539 158.86 43.1102C158.318 42.5684 157.676 42.9512 157.676 42.9512C148.791 48.2811 137.413 47.1226 129.763 39.4721ZM158.201 35.202C164.865 28.5387 164.865 17.6969 158.201 11.0337C151.538 4.37056 140.696 4.37038 134.033 11.0337C127.37 17.6968 127.37 28.5387 134.033 35.202C140.696 41.8649 151.538 41.8649 158.201 35.202Z" fill="#84B5FF"/>
<path d="M156.726 21.7453C157.036 21.7453 157.351 21.6843 157.655 21.556C158.869 21.0422 159.437 19.6415 158.923 18.4274C155.694 10.7963 146.859 7.21509 139.228 10.4443C138.014 10.958 137.446 12.3587 137.96 13.5728C138.474 14.7869 139.874 15.3545 141.089 14.8409C146.295 12.6378 152.324 15.0813 154.527 20.2877C154.912 21.1983 155.796 21.7453 156.726 21.7453Z" fill="#84B5FF"/>
</g>
<g opacity="0.2" clip-path="url(#clip1)">
<path d="M65.6041 121.917H1.39588C0.558377 121.917 0 122.475 0 123.313V142.854C0 146.763 3.07088 149.833 6.97912 149.833H60.0207C63.9291 149.833 66.9999 146.762 66.9999 142.854V123.313C67 122.475 66.4416 121.917 65.6041 121.917ZM9.77088 133.083H20.9375C21.775 133.083 22.3334 133.642 22.3334 134.479C22.3334 135.317 21.775 135.875 20.9375 135.875H9.77088C8.93338 135.875 8.375 135.317 8.375 134.479C8.375 133.642 8.93338 133.083 9.77088 133.083ZM29.3125 141.458H9.77088C8.93338 141.458 8.375 140.9 8.375 140.063C8.375 139.225 8.93338 138.667 9.77088 138.667H29.3125C30.15 138.667 30.7084 139.225 30.7084 140.063C30.7084 140.9 30.15 141.458 29.3125 141.458ZM53.0416 141.458C51.925 141.458 51.0875 141.179 50.25 140.621C49.4125 141.179 48.575 141.458 47.4584 141.458C44.3875 141.458 41.875 138.946 41.875 135.875C41.875 132.804 44.3875 130.292 47.4584 130.292C48.575 130.292 49.4125 130.571 50.25 131.129C51.0875 130.571 51.925 130.292 53.0416 130.292C56.1125 130.292 58.625 132.804 58.625 135.875C58.625 138.946 56.1125 141.458 53.0416 141.458Z" fill="#84B5FF"/>
<path d="M60.0209 105.167H6.97912C3.07088 105.167 0 108.238 0 112.146V114.938C0 115.775 0.558377 116.333 1.39588 116.333H65.6043C66.4418 116.333 67.0001 115.775 67.0001 114.938V112.146C67 108.238 63.9291 105.167 60.0209 105.167Z" fill="#84B5FF"/>
</g>
<g opacity="0.2" clip-path="url(#clip2)">
<path d="M182.602 178.668H147.667C146.802 178.668 146.044 178.096 145.809 177.266L138.075 150.195C137.908 149.611 138.022 148.984 138.388 148.499C138.755 148.016 139.325 147.73 139.933 147.73H187.065L188.448 141.511C188.644 140.625 189.43 139.996 190.336 139.996H202.066C203.135 139.996 204 140.861 204 141.93C204 142.999 203.135 143.863 202.066 143.863H191.888L184.905 175.284C186.96 176.177 188.402 178.222 188.402 180.602C188.402 183.801 185.8 186.403 182.602 186.403H147.667C146.598 186.403 145.734 185.538 145.734 184.469C145.734 183.401 146.598 182.536 147.667 182.536H182.602C183.667 182.536 184.535 181.669 184.535 180.602C184.535 179.535 183.667 178.668 182.602 178.668Z" fill="#84B5FF"/>
<path d="M184.535 192.204C184.535 195.403 181.933 198.005 178.734 198.005C175.535 198.005 172.933 195.403 172.933 192.204C172.933 189.005 175.535 186.403 178.734 186.403C181.933 186.403 184.535 189.005 184.535 192.204Z" fill="#84B5FF"/>
<path d="M157.336 192.204C157.336 195.403 154.733 198.005 151.535 198.005C148.336 198.005 145.734 195.403 145.734 192.204C145.734 189.005 148.336 186.403 151.535 186.403C154.733 186.403 157.336 189.005 157.336 192.204Z" fill="#84B5FF"/>
</g>
<g filter="url(#filter0_d)">
<path d="M136.654 26H67.3462C62.1847 26 58 30.1732 58 35.3237V150.379V176.628C58 181.819 62.229 185.952 67.3462 185.952H136.654C141.814 185.952 146 181.78 146 176.628V61.5726V35.3237C146 30.1275 141.765 26 136.654 26Z" fill="#276ED8"/>
<path d="M141.471 38.707H62.5327V173.244H141.471V38.707Z" fill="#F0F6FF"/>
<path d="M117.61 73.323L96.3472 79.5687L93.2002 85.6567L86.8143 85.6045L71.2504 102.667L86.8143 119.727L93.197 119.674L96.3509 125.758L117.61 132.004L123.306 108.703L120.07 102.667L123.306 96.632L117.61 73.323ZM93.7124 86.6362L109.977 82.0534L100.641 99.7848H81.9647L93.7124 86.6362ZM93.7124 118.694L81.9647 105.546H100.641L109.977 123.277L93.7124 118.694ZM114.529 120.395L105.189 102.667L114.529 84.9323L119.039 102.667L114.529 120.395Z" fill="#06B25F"/>
<path d="M118.276 34.4791H85.8549C85.4802 34.4791 85.1756 34.1766 85.1756 33.8014V33.4704C85.1756 33.0966 85.4788 32.7927 85.8549 32.7927H118.276C118.65 32.7927 118.955 33.0952 118.955 33.4704V33.8014C118.953 34.1752 118.65 34.4791 118.276 34.4791Z" fill="white"/>
<path opacity="0.2" d="M141.471 165.287H62.5327V173.245H141.471V165.287Z" fill="#84B5FF"/>
<path opacity="0.2" d="M141.471 38.707H62.5327V45.8463H141.471V38.707Z" fill="#84B5FF"/>
</g>
<defs>
<filter id="filter0_d" x="46" y="18" width="112" height="183.952" filterUnits="userSpaceOnUse" color-interpolation-filters="sRGB">
<feFlood flood-opacity="0" result="BackgroundImageFix"/>
<feColorMatrix in="SourceAlpha" type="matrix" values="0 0 0 0 0 0 0 0 0 0 0 0 0 0 0 0 0 0 127 0" result="hardAlpha"/>
<feOffset dy="4"/>
<feGaussianBlur stdDeviation="6"/>
<feColorMatrix type="matrix" values="0 0 0 0 0.160784 0 0 0 0 0.0941176 0 0 0 0 0.435294 0 0 0 0.25 0"/>
<feBlend mode="normal" in2="BackgroundImageFix" result="effect1_dropShadow"/>
<feBlend mode="normal" in="SourceGraphic" in2="effect1_dropShadow" result="shape"/>
</filter>
<clipPath id="clip0">
<rect width="57" height="57" fill="white" transform="matrix(-1 0 0 1 180 0)"/>
</clipPath>
<clipPath id="clip1">
<rect width="67" height="67" fill="white" transform="translate(0 94)"/>
</clipPath>
<clipPath id="clip2">
<rect width="66" height="66" fill="white" transform="matrix(-1 0 0 1 204 136)"/>
</clipPath>
</defs>
</svg>
