<svg width="550" height="395" viewBox="0 0 550 395" fill="none" xmlns="http://www.w3.org/2000/svg">
<mask id="mask0" style="mask-type:alpha" maskUnits="userSpaceOnUse" x="0" y="0" width="550" height="395">
<rect width="550" height="395" fill="#C4C4C4"/>
</mask>
<g mask="url(#mask0)">
<path opacity="0.04" d="M100.58 299.689C159.117 350.342 232.616 358.052 286.398 333.277C340.181 308.501 333.923 272.528 315.111 242.193C309.244 232.787 418.344 209.678 414.885 198.89C407.355 175.283 402.163 171.115 388.933 150.853C377.498 133.314 281.049 119.265 266.096 105.204C259.547 99.1202 237.44 40.2377 171.748 15.6793C115.611 -5.30735 69.1099 34.1926 53.1067 77.3842C37.1035 120.576 20.4231 230.329 100.58 299.689Z" fill="#276ED8"/>
<path opacity="0.2" d="M419.397 165.669L428.111 164.03V156.218L419.397 154.716C418.728 151.506 417.457 148.501 415.709 145.838L420.708 138.504L415.177 132.972L407.952 138.08C405.288 136.332 402.297 135.075 399.074 134.406L397.435 125.692H389.623L388.12 134.406C384.911 135.075 381.906 136.346 379.243 138.094L371.922 133.095L366.39 138.626L371.498 145.852C369.75 148.515 368.494 151.52 367.824 154.729L359.111 156.368V164.181L367.824 165.683C368.494 168.906 369.764 171.897 371.512 174.561L366.513 181.881L372.045 187.413L379.284 182.305C381.947 184.053 384.952 185.323 388.161 185.979L389.8 194.692H397.612L399.115 185.979C402.338 185.309 405.329 184.039 407.993 182.291L415.313 187.29L420.845 181.758L415.737 174.533C417.471 171.884 418.728 168.893 419.397 165.669ZM393.611 176.377C384.678 176.377 377.44 169.125 377.44 160.206C377.44 151.287 384.678 144.035 393.611 144.035C402.543 144.035 409.782 151.274 409.782 160.206C409.782 169.138 402.543 176.377 393.611 176.377Z" fill="#84B5FF"/>
<path d="M245.111 178.561V265.824C245.111 270.167 248.644 273.692 252.997 273.692H361.224C365.577 273.692 369.111 270.167 369.111 265.824V178.561C369.111 174.218 365.577 170.692 361.224 170.692H252.989C248.636 170.701 245.111 174.218 245.111 178.561ZM361.335 269.656H307.111H252.886C251.273 269.656 249.967 268.353 249.967 266.743V177.641C249.967 176.032 251.273 174.729 252.886 174.729H361.335C362.948 174.729 364.254 176.032 364.254 177.641V266.743C364.254 268.353 362.948 269.656 361.335 269.656Z" fill="#66D6A0"/>
<path d="M359.021 71.6924C347.471 71.6924 338.111 81.0524 338.111 92.6024C338.111 104.152 347.471 113.512 359.021 113.512C370.571 113.512 379.931 104.152 379.931 92.6024C379.931 81.0524 370.571 71.6924 359.021 71.6924ZM359.021 108.302C350.341 108.302 343.311 101.272 343.311 92.5924C343.311 83.9124 350.341 76.8824 359.021 76.8824C367.701 76.8824 374.731 83.9124 374.731 92.5924C374.731 101.272 367.701 108.302 359.021 108.302Z" fill="#66D6A0"/>
<path d="M326.781 106.503V239.493C326.781 242.913 324.011 245.683 320.591 245.683H117.791C114.371 245.683 111.601 242.913 111.601 239.493V106.503C111.601 98.6126 118.001 92.2026 125.901 92.2026H312.481C320.381 92.2026 326.781 98.6126 326.781 106.503Z" fill="white" stroke="#84B5FF" stroke-miterlimit="10"/>
<path d="M211.252 124.013H187.115V126.042H211.252V124.013Z" fill="#84B5FF"/>
<path d="M239.562 124.013H215.425V126.042H239.562V124.013Z" fill="#06B25F"/>
<path d="M231.999 134.96H194.572V136.988H231.999V134.96Z" fill="#276ED8"/>
<path d="M257.202 134.96H238.183V136.988H257.202V134.96Z" fill="#84B5FF"/>
<path d="M223.983 145.892H207.549V147.92H223.983V145.892Z" fill="#06B25F"/>
<path d="M288.01 145.892H233.484V147.92H288.01V145.892Z" fill="#06B25F"/>
<path d="M282.631 156.833H220.315V158.861H282.631V156.833Z" fill="#276ED8"/>
<path d="M223.914 167.765H204.737V169.793H223.914V167.765Z" fill="#84B5FF"/>
<path d="M251.298 167.765H232.121V169.793H251.298V167.765Z" fill="#276ED8"/>
<path d="M215.006 224.525H187.115V226.553H215.006V224.525Z" fill="#84B5FF"/>
<path d="M252.661 224.525H224.769V226.553H252.661V224.525Z" fill="#06B25F"/>
<path d="M289.319 224.525H261.428V226.553H289.319V224.525Z" fill="#84B5FF"/>
<path d="M249.099 213.575H194.573V215.603H249.099V213.575Z" fill="#276ED8"/>
<path d="M312.111 213.575H257.586V215.603H312.111V213.575Z" fill="#84B5FF"/>
<path d="M261.656 202.646H207.549V204.674H261.656V202.646Z" fill="#84B5FF"/>
<path d="M281.426 202.646H266.371V204.674H281.426V202.646Z" fill="#06B25F"/>
<path d="M224.385 191.701H204.021V193.73H224.385V191.701Z" fill="#06B25F"/>
<path d="M255.56 191.701H235.196V193.73H255.56V191.701Z" fill="#276ED8"/>
<path d="M289.041 191.701H268.677V193.73H289.041V191.701Z" fill="#84B5FF"/>
<path d="M256.189 180.773H227.633V182.802H256.189V180.773Z" fill="#06B25F"/>
<path d="M216.857 180.773H188.302V182.802H216.857V180.773Z" fill="#276ED8"/>
<path d="M180.39 122.074H177.788V124.68H180.39V122.074Z" fill="#84B5FF"/>
<path d="M180.39 217.442H177.787V212.144H180.39V217.442ZM180.39 204.188H177.787V198.89H180.39V204.188ZM180.39 190.934H177.787V185.635H180.39V190.934ZM180.39 177.679H177.787V172.381H180.39V177.679ZM180.39 164.425H177.787V159.127H180.39V164.425ZM180.39 151.171H177.787V145.872H180.39V151.171ZM180.39 137.916H177.787V132.618H180.39V137.916Z" fill="#84B5FF"/>
<path d="M180.39 225.396H177.788V228.002H180.39V225.396Z" fill="#84B5FF"/>
<path opacity="0.7" d="M111.111 108.692C111.111 105.379 113.797 102.692 117.111 102.692H167.111V245.692H117.111C113.797 245.692 111.111 243.006 111.111 239.692V108.692Z" fill="#84B5FF"/>
<path d="M139.726 126.016H115.59V128.044H139.726V126.016Z" fill="#06B25F"/>
<path d="M158.2 138.41H120.773V140.438H158.2V138.41Z" fill="#84B5FF"/>
<path d="M158.2 150.806H120.773V152.835H158.2V150.806Z" fill="#84B5FF"/>
<path d="M158.2 163.202H120.773V165.231H158.2V163.202Z" fill="#84B5FF"/>
<path d="M158.2 175.595H120.773V177.623H158.2V175.595Z" fill="#84B5FF"/>
<path d="M160.144 200.384H122.716V202.412H160.144V200.384Z" fill="#84B5FF"/>
<path d="M160.144 212.781H122.716V214.81H160.144V212.781Z" fill="#84B5FF"/>
<path d="M160.144 225.173H122.716V227.201H160.144V225.173Z" fill="#84B5FF"/>
<path d="M139.726 187.989H115.59V190.018H139.726V187.989Z" fill="#06B25F"/>
<path d="M326.781 106.503V107.103H111.601V106.503C111.601 98.6126 118.001 92.2026 125.901 92.2026H312.481C320.381 92.2026 326.781 98.6126 326.781 106.503Z" fill="#84B5FF"/>
<path opacity="0.3" d="M294.101 100.342C294.101 101.372 293.271 102.202 292.241 102.202C291.211 102.202 290.381 101.372 290.381 100.342C290.381 99.3124 291.211 98.4824 292.241 98.4824C293.261 98.4824 294.101 99.3124 294.101 100.342Z" fill="white"/>
<path opacity="0.3" d="M304.281 100.342C304.281 101.372 303.451 102.202 302.421 102.202C301.391 102.202 300.561 101.372 300.561 100.342C300.561 99.3124 301.391 98.4824 302.421 98.4824C303.441 98.4824 304.281 99.3124 304.281 100.342Z" fill="white"/>
<path opacity="0.3" d="M314.011 100.342C314.011 101.372 313.181 102.202 312.151 102.202C311.121 102.202 310.291 101.372 310.291 100.342C310.291 99.3124 311.121 98.4824 312.151 98.4824C313.181 98.4824 314.011 99.3124 314.011 100.342Z" fill="white"/>
<path d="M326.781 106.503V239.493C326.781 242.913 324.011 245.683 320.591 245.683H117.791C114.371 245.683 111.601 242.913 111.601 239.493V106.503C111.601 98.6126 118.001 92.2026 125.901 92.2026H312.481C320.381 92.2026 326.781 98.6126 326.781 106.503Z" stroke="#84B5FF" stroke-miterlimit="10"/>
<g filter="url(#filter0_d)">
<rect x="294.111" y="157.692" width="106" height="47.3467" rx="6" fill="#84B5FF"/>
</g>
<path d="M330.517 190.521L325.097 181.352L330.517 172.182L333.13 181.352L330.517 190.521ZM318.454 189.626L311.643 182.833H322.484L327.904 192.002L318.454 189.626ZM318.454 173.049L327.876 170.673L322.456 179.842H311.616L318.454 173.049ZM332.296 166.172L319.982 169.387L318.148 172.546L314.451 172.518L305.417 181.352L314.451 190.185L318.148 190.157L319.982 193.316L332.296 196.559L335.603 184.51L333.741 181.38L335.603 178.249L332.296 166.172ZM360.258 175.09C358.618 175.09 357.506 175.789 356.672 177.075H356.617V175.425H353.726V187.558H356.672V180.681C356.672 179.032 357.701 177.885 359.118 177.885C360.453 177.885 361.453 178.696 361.453 180.122V187.586H364.4V179.646C364.427 176.991 362.759 175.09 360.258 175.09ZM349.251 182.442C349.251 184.063 348.334 185.181 346.833 185.181C345.471 185.181 344.609 184.399 344.609 182.973V175.425H341.663V183.532C341.663 186.188 343.164 187.921 345.86 187.921C347.556 187.921 348.5 187.278 349.307 186.16H349.39V187.586H352.225V175.425H349.279V182.442H349.251ZM365.984 175.425H368.93V187.558H365.984V175.425ZM365.984 171.652H368.93V174.084H365.984V171.652ZM385.635 175.425L383.884 180.904C383.495 182.023 383.189 183.56 383.189 183.56H383.106C383.106 183.56 382.717 182.023 382.328 180.904L380.354 175.425H377.185L380.437 184.063C381.132 185.908 381.355 186.691 381.355 187.362C381.355 188.368 380.827 189.011 379.576 189.011H378.436V191.555H380.326C382.772 191.555 383.634 190.577 384.551 187.893L388.804 175.453H385.635V175.425ZM374.434 184.007V177.578H376.324V175.453H374.434V171.652H371.487V175.425H369.82V177.55H371.487V184.678C371.487 186.971 373.211 187.586 374.767 187.586C376.046 187.586 376.379 187.53 376.379 187.53V185.181H375.629C374.934 185.209 374.434 184.902 374.434 184.007Z" fill="white"/>
<g filter="url(#filter1_d)">
<path d="M199.871 254.257L211.111 252.143V242.066L199.871 240.128C199.008 235.988 197.37 232.112 195.115 228.677L201.562 219.217L194.428 212.082L185.108 218.671C181.673 216.416 177.815 214.795 173.657 213.932L171.543 202.692H161.467L159.529 213.932C155.389 214.795 151.513 216.433 148.078 218.688L138.635 212.241L131.5 219.375L138.089 228.695C135.834 232.13 134.213 236.006 133.35 240.146L122.111 242.26V252.336L133.35 254.274C134.213 258.432 135.852 262.29 138.107 265.725L131.659 275.168L138.794 282.303L148.131 275.714C151.566 277.969 155.442 279.607 159.582 280.453L161.696 291.692H171.772L173.71 280.453C177.868 279.59 181.726 277.951 185.161 275.696L194.604 282.144L201.739 275.009L195.15 265.69C197.387 262.272 199.008 258.414 199.871 254.257ZM166.611 268.068C155.089 268.068 145.752 258.714 145.752 247.21C145.752 235.706 155.089 226.352 166.611 226.352C178.132 226.352 187.469 235.689 187.469 247.21C187.469 258.731 178.132 268.068 166.611 268.068Z" fill="#276ED8"/>
</g>
<g filter="url(#filter2_d)">
<path d="M247.798 315.015L253.654 317.067L256.392 312.342L251.633 308.38C252.349 306.2 252.636 303.925 252.509 301.714L258.111 299.025L256.694 293.743L250.535 294.316C249.532 292.327 248.148 290.513 246.445 288.986L248.498 283.131L243.771 280.395L239.808 285.152C237.628 284.436 235.352 284.149 233.14 284.277L230.45 278.692L225.166 280.108L225.739 286.281C223.75 287.284 221.936 288.668 220.408 290.37L214.551 288.318L211.814 293.043L216.572 297.005C215.856 299.2 215.57 301.443 215.697 303.671L210.111 306.36L211.527 311.642L217.702 311.069C218.705 313.058 220.074 314.871 221.792 316.399L219.739 322.254L224.466 324.99L228.429 320.233C230.625 320.949 232.869 321.235 235.097 321.108L237.787 326.692L243.071 325.276L242.498 319.103C244.456 318.117 246.27 316.749 247.798 315.015ZM228.429 312.485C223.018 309.367 221.172 302.446 224.291 297.036C227.41 291.627 234.334 289.782 239.745 292.9C245.156 296.018 247.002 302.939 243.883 308.348C240.763 313.758 233.84 315.603 228.429 312.485Z" fill="#84B5FF"/>
</g>
<g filter="url(#filter3_d)">
<rect x="90.1107" y="75.6924" width="58" height="57" rx="6" fill="#06B25F"/>
</g>
<path d="M109.854 113.618L96.577 106.438C95.7189 105.941 95.2899 105.174 95.2899 104.135C95.2899 103.051 95.7415 102.284 96.6447 101.832L109.854 94.5839V97.2257C109.854 97.4063 109.786 97.6547 109.651 97.9708C109.515 98.2418 109.312 98.445 109.041 98.5805L99.6252 103.729C99.2639 104 99.2639 104.271 99.6252 104.541L109.854 110.028V113.618Z" fill="white"/>
<path d="M121.163 92.4163H123.804L117.234 114.905C117.053 115.493 116.647 115.786 116.015 115.786H114.321L121.163 92.4163Z" fill="white"/>
<path d="M128.069 94.5839L141.278 101.832C142.226 102.329 142.7 103.096 142.7 104.135C142.7 105.174 142.226 105.919 141.278 106.37L128.069 113.618V110.977C128.069 110.841 128.114 110.615 128.204 110.299C128.34 109.983 128.543 109.757 128.814 109.622L138.297 104.541C138.658 104.271 138.658 104 138.297 103.729L128.069 98.174V94.5839Z" fill="white"/>
</g>
<defs>
<filter id="filter0_d" x="288.111" y="151.692" width="128" height="69.3467" filterUnits="userSpaceOnUse" color-interpolation-filters="sRGB">
<feFlood flood-opacity="0" result="BackgroundImageFix"/>
<feColorMatrix in="SourceAlpha" type="matrix" values="0 0 0 0 0 0 0 0 0 0 0 0 0 0 0 0 0 0 127 0" result="hardAlpha"/>
<feMorphology radius="3" operator="dilate" in="SourceAlpha" result="effect1_dropShadow"/>
<feOffset dx="5" dy="5"/>
<feGaussianBlur stdDeviation="4"/>
<feColorMatrix type="matrix" values="0 0 0 0 0 0 0 0 0 0 0 0 0 0 0 0 0 0 0.2 0"/>
<feBlend mode="normal" in2="BackgroundImageFix" result="effect1_dropShadow"/>
<feBlend mode="normal" in="SourceGraphic" in2="effect1_dropShadow" result="shape"/>
</filter>
<filter id="filter1_d" x="112.111" y="196.692" width="109" height="109" filterUnits="userSpaceOnUse" color-interpolation-filters="sRGB">
<feFlood flood-opacity="0" result="BackgroundImageFix"/>
<feColorMatrix in="SourceAlpha" type="matrix" values="0 0 0 0 0 0 0 0 0 0 0 0 0 0 0 0 0 0 127 0" result="hardAlpha"/>
<feOffset dy="4"/>
<feGaussianBlur stdDeviation="5"/>
<feColorMatrix type="matrix" values="0 0 0 0 0.0885677 0 0 0 0 0.0395834 0 0 0 0 0.395833 0 0 0 0.25 0"/>
<feBlend mode="normal" in2="BackgroundImageFix" result="effect1_dropShadow"/>
<feBlend mode="normal" in="SourceGraphic" in2="effect1_dropShadow" result="shape"/>
</filter>
<filter id="filter2_d" x="200.111" y="272.692" width="68" height="68" filterUnits="userSpaceOnUse" color-interpolation-filters="sRGB">
<feFlood flood-opacity="0" result="BackgroundImageFix"/>
<feColorMatrix in="SourceAlpha" type="matrix" values="0 0 0 0 0 0 0 0 0 0 0 0 0 0 0 0 0 0 127 0" result="hardAlpha"/>
<feOffset dy="4"/>
<feGaussianBlur stdDeviation="5"/>
<feColorMatrix type="matrix" values="0 0 0 0 0.0885677 0 0 0 0 0.0395834 0 0 0 0 0.395833 0 0 0 0.25 0"/>
<feBlend mode="normal" in2="BackgroundImageFix" result="effect1_dropShadow"/>
<feBlend mode="normal" in="SourceGraphic" in2="effect1_dropShadow" result="shape"/>
</filter>
<filter id="filter3_d" x="84.1107" y="69.6924" width="80" height="79" filterUnits="userSpaceOnUse" color-interpolation-filters="sRGB">
<feFlood flood-opacity="0" result="BackgroundImageFix"/>
<feColorMatrix in="SourceAlpha" type="matrix" values="0 0 0 0 0 0 0 0 0 0 0 0 0 0 0 0 0 0 127 0" result="hardAlpha"/>
<feMorphology radius="3" operator="dilate" in="SourceAlpha" result="effect1_dropShadow"/>
<feOffset dx="5" dy="5"/>
<feGaussianBlur stdDeviation="4"/>
<feColorMatrix type="matrix" values="0 0 0 0 0 0 0 0 0 0 0 0 0 0 0 0 0 0 0.2 0"/>
<feBlend mode="normal" in2="BackgroundImageFix" result="effect1_dropShadow"/>
<feBlend mode="normal" in="SourceGraphic" in2="effect1_dropShadow" result="shape"/>
</filter>
</defs>
</svg>
