<svg width="550" height="395" viewBox="0 0 550 395" fill="none" xmlns="http://www.w3.org/2000/svg">
<path d="M216.249 68.167C205.263 68.167 196.359 77.0702 196.359 88.0565C196.359 99.0429 205.263 107.946 216.249 107.946C227.235 107.946 236.138 99.0429 236.138 88.0565C236.138 77.0702 227.235 68.167 216.249 68.167ZM216.249 102.99C207.993 102.99 201.306 96.3034 201.306 88.047C201.306 79.7906 207.993 73.1037 216.249 73.1037C224.505 73.1037 231.192 79.7906 231.192 88.047C231.192 96.3034 224.505 102.99 216.249 102.99Z" fill="#66D6A0"/>
<mask id="mask0" style="mask-type:alpha" maskUnits="userSpaceOnUse" x="0" y="0" width="550" height="395">
<rect width="550" height="395" fill="#C4C4C4"/>
</mask>
<g mask="url(#mask0)">
<path opacity="0.04" d="M305.557 377.307C208.765 395.507 35.1283 414.5 9.00001 295.5C-17.1282 176.5 46.0188 135.631 90.9999 132.5C104.972 131.565 142.583 161.034 185.321 141.437C237.217 117.64 237.776 50.4646 268.327 49.055C294.761 47.8192 318.332 111.543 343.949 116.492C355.093 118.714 401.857 34.786 456.007 74.1446C490.565 99.2629 519.576 195.81 504.357 139.213C489.137 82.6169 416.847 356.381 305.557 377.307Z" fill="#276ED8"/>
</g>
<path d="M295.569 296.626H267.785C266.691 296.626 265.797 295.741 265.797 294.638C265.797 293.544 266.681 292.65 267.785 292.65H295.569C296.663 292.65 297.557 293.534 297.557 294.638C297.557 295.732 296.663 296.626 295.569 296.626Z" fill="#66D6A0"/>
<path d="M295.569 306.547H267.785C266.691 306.547 265.797 305.662 265.797 304.559C265.797 303.465 266.681 302.571 267.785 302.571H295.569C296.663 302.571 297.557 303.455 297.557 304.559C297.557 305.653 296.663 306.547 295.569 306.547Z" fill="#66D6A0"/>
<path opacity="0.2" d="M156.402 141.101L168.775 138.774V127.681L156.402 125.548C155.452 120.99 153.648 116.724 151.166 112.942L158.264 102.528L150.41 94.6739L140.151 101.927C136.369 99.4445 132.122 97.6604 127.545 96.7101L125.218 84.3374H114.125L111.992 96.7101C107.435 97.6604 103.168 99.4639 99.3867 101.946L88.992 94.8484L81.1379 102.703L88.3908 112.961C85.9085 116.743 84.1244 121.01 83.1741 125.567L70.8014 127.894V138.987L83.1741 141.12C84.1244 145.697 85.9279 149.944 88.4102 153.726L81.3124 164.12L89.1665 171.974L99.4448 164.721C103.226 167.204 107.493 169.007 112.05 169.938L114.377 182.311H125.47L127.603 169.938C132.18 168.988 136.427 167.184 140.209 164.702L150.604 171.8L158.458 163.946L151.205 153.687C153.668 149.924 155.452 145.677 156.402 141.101ZM119.788 156.305C107.105 156.305 96.8268 146.007 96.8268 133.343C96.8268 120.68 107.105 110.382 119.788 110.382C132.471 110.382 142.749 120.66 142.749 133.343C142.749 146.027 132.471 156.305 119.788 156.305Z" fill="#84B5FF"/>
<path d="M89.8254 181.711V322.737C89.8254 329.756 93.0511 333.454 97.0246 333.454H195.819C199.792 333.454 203.018 329.756 203.018 322.737V181.711C203.018 174.692 199.792 170.994 195.819 170.994H97.0168C93.0433 171.008 89.8254 174.692 89.8254 181.711ZM195.92 328.93H146.422H96.9233C95.4508 328.93 94.2587 326.824 94.2587 324.223V180.224C94.2587 177.623 95.4508 175.517 96.9233 175.517H195.92C197.393 175.517 198.585 177.623 198.585 180.224V324.223C198.585 326.824 197.393 328.93 195.92 328.93Z" fill="#66D6A0"/>
<path d="M316.382 137.89V264.39C316.382 267.643 313.747 270.277 310.494 270.277H117.591C114.338 270.277 111.703 267.643 111.703 264.39V137.89C111.703 130.385 117.791 124.288 125.305 124.288H302.78C310.294 124.288 316.382 130.385 316.382 137.89Z" fill="white" stroke="#84B5FF" stroke-miterlimit="10"/>
<path d="M316.382 137.89V138.46H111.703V137.89C111.703 130.385 117.791 124.288 125.305 124.288H302.78C310.294 124.288 316.382 130.385 316.382 137.89Z" fill="#84B5FF"/>
<path d="M316.382 243.026V264.39C316.382 267.643 313.747 270.277 310.494 270.277H117.591C114.338 270.277 111.703 267.643 111.703 264.39V243.026H316.382Z" fill="#EDF1FF"/>
<path d="M285.297 132.031C285.297 133.01 284.507 133.8 283.527 133.8C282.548 133.8 281.758 133.01 281.758 132.031C281.758 131.051 282.548 130.261 283.527 130.261C284.498 130.261 285.297 131.051 285.297 132.031Z" fill="#84B5FF"/>
<path d="M294.98 132.031C294.98 133.01 294.19 133.8 293.211 133.8C292.231 133.8 291.441 133.01 291.441 132.031C291.441 131.051 292.231 130.261 293.211 130.261C294.181 130.261 294.98 131.051 294.98 132.031Z" fill="#84B5FF"/>
<path d="M304.235 132.031C304.235 133.01 303.446 133.8 302.466 133.8C301.486 133.8 300.697 133.01 300.697 132.031C300.697 131.051 301.486 130.261 302.466 130.261C303.446 130.261 304.235 131.051 304.235 132.031Z" fill="#84B5FF"/>
<path d="M316.382 137.89V264.39C316.382 267.643 313.747 270.277 310.494 270.277H117.591C114.338 270.277 111.703 267.643 111.703 264.39V137.89C111.703 130.385 117.791 124.288 125.305 124.288H302.78C310.294 124.288 316.382 130.385 316.382 137.89Z" stroke="#84B5FF" stroke-miterlimit="10"/>
<g filter="url(#filter0_d)">
<path d="M472.455 65.9903C453.46 57.8207 434.789 57.1052 424.822 63.1402C424.977 62.3982 425.191 61.6636 425.467 60.9559C430.58 47.8456 454.785 45.8417 479.523 56.4813C504.261 67.1208 520.172 86.3785 515.059 99.4887C513.87 102.535 511.651 104.98 508.632 106.806C511.354 93.8218 495.853 76.0538 472.455 65.9903Z" fill="#043072"/>
<path d="M423.601 63.6736C420.891 76.6618 436.383 94.4257 459.777 104.487C468.854 108.391 478.629 111.001 488.352 111.297C492.326 111.419 496.316 111.142 500.125 110.219C501.806 109.811 503.464 109.27 505.047 108.614C506.519 108.005 509.485 106.327 509.872 104.571C509.032 108.394 506.336 111.783 503.551 114.353C490.873 126.049 467.545 120.376 452.711 113.996C427.973 103.356 412.069 84.1029 417.181 70.9931C418.369 67.9466 420.588 65.5016 423.601 63.6736Z" fill="#84B5FF"/>
<path d="M425.548 61.0201C430.784 47.8744 455.02 45.8221 479.674 56.4374C504.328 67.0528 520.073 86.3196 514.836 99.4653C513.619 102.52 511.376 104.974 508.339 106.809" stroke="#84B5FF" stroke-width="2" stroke-miterlimit="10"/>
<path d="M424.234 63.6521C421.421 76.653 436.708 94.3831 459.937 104.387C478.794 112.508 497.393 113.173 507.376 107.109" stroke="#84B5FF" stroke-width="2" stroke-miterlimit="10"/>
<path d="M416.834 83.781C433.366 103.034 456.559 117.742 484.861 129.195C486.688 129.933 488.711 129.14 489.411 127.394L500.593 99.471C501.287 97.7396 500.434 95.7045 498.658 94.8877C474.162 83.5965 452.18 69.2022 433.173 51.1341C431.321 49.3735 428.344 49.8987 427.437 52.1601L416.201 80.1892C415.727 81.3703 415.961 82.7608 416.834 83.781Z" fill="#276ED8"/>
<path d="M411.009 85.3514C427.541 104.606 467.095 133.344 467.095 133.344L486.866 129.554C488.047 129.316 488.563 128.046 488.864 126.897L494.799 101.046C495.496 99.3098 494.63 97.2749 492.848 96.4556C468.505 85.2316 448.75 68.5813 429.848 50.6462C429.605 50.4115 429.244 50.3455 428.949 50.4849C425.952 51.8838 410.05 56.9991 409.105 58.7416L410.379 81.7662C409.9 82.9453 410.134 84.336 411.009 85.3514Z" fill="#276ED8"/>
<path opacity="0.21" d="M448.403 71.9713C447.025 72.4313 445.571 72.835 444.093 73.2522C443.801 73.3171 443.508 73.3696 443.213 73.4271C447.326 71.9608 451.475 70.5874 455.593 69.1409C455.664 69.195 455.734 69.2491 455.807 69.2981C453.352 70.24 450.884 71.1352 448.403 71.9713Z" fill="white"/>
<path opacity="0.21" d="M426.271 68.2003C434.433 73.8683 442.581 79.5717 450.996 84.8523C456.984 88.61 463.091 91.7164 469.278 95.0519C471.665 96.339 475.706 98.4559 477.802 101.159C473.723 102.44 469.638 103.706 465.544 104.945C464.258 105.337 464.944 107.35 466.23 106.959C470.455 105.682 474.661 104.373 478.872 103.055C479.053 103.564 479.15 104.084 479.152 104.616C473.912 106.354 468.667 108.09 463.323 109.541C462.02 109.896 462.711 111.912 464.009 111.555C466.146 110.975 468.259 110.336 470.37 109.685C470.026 110.01 469.683 110.335 469.353 110.671C466.712 113.35 464.448 116.416 462.513 119.671C462.39 119.594 462.273 119.52 462.151 119.444C460.586 118.363 458.925 117.412 457.351 116.522C452.846 113.975 448.33 111.778 444.114 108.771C443.43 108.264 442.752 107.76 442.072 107.26C434.326 101.482 426.941 95.2448 419.537 89.0405C417.268 86.8299 415.05 84.57 412.861 82.2816C412.726 80.2803 412.579 78.2796 412.417 76.2845C412.353 73.3569 412.224 70.4248 412.062 67.4966C412.37 64.847 412.743 62.2019 413.121 59.5591C413.583 59.3801 414.046 59.2011 414.501 59.0249C418.081 62.479 422.255 65.4091 426.271 68.2003Z" fill="white"/>
<path d="M476.655 130.474L487.623 104.087C488.658 101.597 487.707 98.6429 485.359 97.0599L422.76 54.8257C421.896 54.2413 420.951 53.9183 420.01 53.8158C421.825 52.7789 424.226 52.7924 426.203 54.1214L488.802 96.3556C491.15 97.9386 492.101 100.892 491.066 103.383L480.098 129.77C479.356 131.558 477.405 132.383 475.58 131.9C476.037 131.54 476.413 131.063 476.655 130.474Z" fill="#06B25F"/>
<path d="M401.144 90.5501L463.197 132.433C466.42 134.612 470.712 133.434 472.09 129.997L481.355 106.877C482.474 104.087 481.224 100.81 478.457 99.2835C456.869 87.3716 436.507 73.626 417.256 58.2277C414.042 55.6574 409.381 56.7006 407.923 60.3393L398.738 83.2567C397.704 85.853 398.707 88.9049 401.144 90.5501Z" fill="#84B5FF"/>
<path d="M432.339 77.6886L456.217 93.8659C457.287 94.592 458.711 94.1688 459.125 93.0045L459.221 92.7335C459.523 91.8804 459.168 90.8969 458.369 90.388C449.796 84.906 441.797 79.7532 434.497 74.5486C433.447 73.8019 432.02 74.1709 431.567 75.3123C431.224 76.1599 431.55 77.1545 432.339 77.6886Z" fill="#06B25F"/>
<path d="M401.618 90.6058L462.915 131.975C466.1 134.125 470.338 132.959 471.698 129.568L480.85 106.731C481.954 103.975 480.718 100.74 477.988 99.2296C456.665 87.4672 436.557 73.8839 417.542 58.6759C414.364 56.1387 409.764 57.1667 408.324 60.7601L399.253 83.3949C398.221 85.9688 399.215 88.9814 401.618 90.6058Z" stroke="#1351AC" stroke-width="3" stroke-miterlimit="10"/>
<path d="M477.835 126.16C478.2 126.606 478.796 126.81 479.343 126.672L491.907 123.546L499.61 108.92C499.916 108.34 499.742 107.61 499.2 107.184C498.829 106.89 498.356 106.755 497.897 106.8L485.165 108.15C484.567 108.213 484.066 108.58 483.846 109.119L477.566 124.508C477.338 125.05 477.439 125.682 477.835 126.16Z" fill="#194484"/>
<path d="M479.527 126.75L492.017 125.19C492.694 125.106 493.256 124.687 493.503 124.081L499.668 108.996C499.863 108.518 499.433 107.997 498.904 108.06L486.399 109.625C485.768 109.705 485.235 110.1 485.004 110.665L478.798 125.852C478.606 126.308 479.018 126.81 479.527 126.75Z" fill="#194484"/>
<path d="M486.882 121.943L491.504 121.379C491.943 121.326 492.314 121.049 492.471 120.658L494.928 114.551C495.267 113.709 494.495 112.778 493.548 112.896L488.892 113.464C488.471 113.518 488.121 113.774 487.97 114.15L485.502 120.287C485.163 121.13 485.937 122.056 486.882 121.943Z" fill="#276ED8"/>
<path d="M487.35 122.503L491.973 121.939C492.412 121.886 492.783 121.609 492.94 121.218L495.397 115.111C495.736 114.268 494.964 113.338 494.017 113.455L489.361 114.023C488.94 114.077 488.59 114.334 488.439 114.709L485.971 120.847C485.639 121.687 486.411 122.618 487.35 122.503Z" fill="#06B25F"/>
</g>
<g filter="url(#filter1_d)">
<path d="M172.563 300.105C172.175 300.579 171.786 301.046 171.397 301.514C167.377 306.33 161.046 308.773 155.356 306.344C147.148 302.84 138.692 298.335 131.02 293.724C124.643 289.889 118.975 284.542 112.02 281.932C103.897 278.887 96.3014 274.686 89.254 269.773C86.2793 267.7 83.1531 265.552 80.3571 263.265C78.953 262.114 77.4637 261.047 76.1022 259.853C75.2961 259.15 73.6402 257.762 74.1637 256.465C74.2029 256.368 74.2529 256.265 74.23 256.168C74.2133 256.081 74.1475 256.021 74.0816 255.961C72.7695 254.747 71.3845 253.539 70.308 252.118C69.4096 250.928 70.4393 249.597 71.2395 248.571C71.6945 247.988 73.7498 245.26 75.7176 245.395C73.0824 242.699 70.1358 240.261 67.5521 237.483C67.5462 237.478 67.5402 237.473 67.5399 237.468C69.0591 234.292 71.5254 231.545 74.7033 229.801C79.3109 233.89 83.9189 237.984 88.5209 242.073C90.9655 244.248 93.5844 246.501 96.864 247.12C92.4563 244.068 88.6747 240.187 85.7724 235.735C83.3318 231.989 81.4512 227.805 78.4622 224.502C78.5436 224.358 78.6365 224.218 78.7235 224.073C78.8917 223.872 79.0658 223.675 79.2462 223.489C80.2542 222.446 81.3643 221.591 82.594 220.753C83.3468 220.237 84.1245 219.757 84.921 219.308C86.0053 219.038 87.1595 218.893 88.3412 218.828C92.389 224.448 96.5398 229.999 101.426 234.931C107.553 241.116 114.918 246.337 123.511 248.676C125.251 249.15 127.109 249.235 128.889 248.799C138.468 246.473 131.453 230.766 129.351 225.107C129.533 224.954 129.727 224.811 129.939 224.677C132.27 223.199 135.516 223.096 138.227 223.199C139.614 223.254 140.995 223.396 142.366 223.568C142.412 223.756 142.458 223.949 142.51 224.154C143.445 227.564 145.526 233.945 146.815 237.231C149.305 243.586 153.86 248.838 155.186 255.724C157.004 265.163 156.293 272.897 165.572 278.285C166.755 278.972 167.932 279.654 169.116 280.342C176.145 284.416 177.806 293.705 172.563 300.105Z" fill="#84B5FF"/>
<path d="M119.173 249.742C107.99 246.886 97.0608 238.743 90.9815 229.602C89.3743 227.183 87.8863 224.687 86.1492 222.355C84.554 220.216 86.1723 219.353 85.9767 219.618C87.4109 217.221 92.8011 220.722 95.3552 224.023C99.0222 228.761 101.04 231.82 104.765 235.903C107.37 238.756 112.368 242.043 115.504 244.387C118.629 246.728 119.605 246.489 123.45 247.631C130.318 249.67 128.567 247.855 132.733 246.657C132.733 246.657 132.926 238.926 132.95 238.055C133.028 234.719 127.398 228.786 129.567 226.056C129.818 225.743 130.102 225.511 130.452 225.24C132.652 225.329 132.06 225.061 132.664 225.519C132.323 224.852 133.268 225.978 132.664 225.519C134.105 228.34 134.956 231.297 135.707 234.36C136.884 239.173 136.716 247.66 131.397 250.873C127.479 253.243 123.403 250.822 119.173 249.742Z" fill="#06B25F"/>
<path d="M75.2116 230.739C75.3451 230.869 75.4729 231.003 75.6063 231.133C79.4414 234.886 82.6552 236.287 87.2282 239.549C89.4974 241.167 91.8515 242.75 94.3789 244.145C95.87 244.968 97.3945 245.751 99.0361 246.384C99.6641 246.755 100.286 247.122 100.914 247.489C101.629 248.91 100.053 249.699 98.2607 249.872C97.5152 249.942 96.7394 249.909 96.07 249.772C94.4623 249.436 93.1428 248.647 91.8862 247.867C85.5857 243.952 78.2653 239.743 73.7556 234.608C72.5046 233.184 71.3971 232.268 74.4911 230.929C74.723 230.825 74.9614 230.772 75.2116 230.739Z" fill="#276ED8"/>
<path d="M92.2145 258.359C92.1434 258.682 91.8617 258.996 91.2639 259.294C90.6525 259.594 89.9395 259.585 89.2954 259.437C87.5809 259.044 86.2425 257.805 84.9892 256.61C82.2734 254.018 79.1726 251.841 76.5449 249.271C75.8149 248.556 73.5918 246.349 76.4424 246.071C77.845 245.934 79.5834 247.405 80.4766 248.174C82.485 249.901 84.5277 251.592 86.6041 253.239C87.6567 254.072 88.6984 254.952 89.7802 255.741C90.5269 256.287 92.4339 257.345 92.2145 258.359Z" fill="#276ED8"/>
<path d="M134.577 297.141C131.445 295.239 128.501 293.364 125.161 290.923C125.262 290.903 125.627 290.795 125.732 290.775C139.147 288.839 151.477 280.764 157.865 268.89C157.9 268.821 157.942 268.763 157.977 268.7C160.059 271.48 161.408 274.608 163.963 276.751C157.18 286.792 146.222 293.469 134.577 297.141Z" fill="#276ED8"/>
<path d="M158.726 310.77C154.804 308.574 152.33 307.085 148.465 304.802C148.66 304.763 148.861 304.729 149.069 304.71C160.949 303.607 170.027 295.067 171.243 283.408C171.283 283.048 171.352 282.713 171.452 282.402C174.571 283.567 177.568 285.679 180.51 287.176C178.519 298.453 172.45 307.367 158.726 310.77Z" fill="#276ED8"/>
<path opacity="0.33" d="M134.703 297.165C133.809 296.622 132.926 296.078 132.049 295.529C130.082 294.002 128.167 292.412 126.321 290.755C133.245 289.692 139.86 287.008 145.5 283.012C147.162 284.51 148.924 285.908 150.707 287.282C151.193 287.767 151.69 288.251 152.186 288.725C146.904 292.419 140.903 295.223 134.703 297.165Z" fill="white"/>
<path opacity="0.33" d="M156.705 285.085C156.319 285.433 155.933 285.775 155.535 286.113C153.577 283.911 151.626 281.659 149.48 279.634C149.7 279.433 149.913 279.221 150.127 279.016C152.302 281.055 154.492 283.077 156.705 285.085Z" fill="white"/>
<path opacity="0.33" d="M170.236 297.329C171.742 298.566 173.292 299.787 174.952 300.851C174.602 301.316 174.246 301.77 173.861 302.216C171.343 300.057 168.745 297.987 166.164 295.899C166.478 295.509 166.776 295.109 167.061 294.694C168.121 295.574 169.176 296.454 170.236 297.329Z" fill="white"/>
<path opacity="0.33" d="M163.379 298.96C165.912 300.992 168.461 303.007 170.962 305.075C167.829 307.606 163.856 309.562 158.871 310.785C154.963 308.605 152.498 307.126 148.646 304.859C148.84 304.821 149.041 304.787 149.248 304.769C154.722 304.266 159.592 302.188 163.379 298.96Z" fill="white"/>
<path d="M155.579 313C152.465 312.414 148.986 311.314 145.464 309.697C137.886 306.216 130.681 303.012 129.388 299.227C128.995 298.08 130.659 295.429 131.111 294.535C133.056 290.694 142.636 291.259 152.505 295.791C158.557 298.573 163.146 301.957 165.777 305.124C166.197 305.627 166.757 306.661 166.529 307.345C166.396 307.746 165.148 310.368 164.33 310.646C161.63 311.555 158.296 312.175 155.579 313Z" fill="#194484"/>
<path d="M152.972 313.724C150.813 314.267 148.548 314.165 146.527 313.38C145.736 313.068 144.933 312.737 144.128 312.378C134.222 307.966 127.622 301.624 129.396 298.213C131.169 294.802 140.639 295.616 150.545 300.034C157.173 302.986 162.309 306.798 164.457 310.025C164.656 310.328 164.49 310.741 164.119 310.846C160.431 311.894 156.7 312.79 152.972 313.724Z" fill="#06B25F"/>
<path opacity="0.33" d="M119.187 260.413C126.247 263.207 130.295 269.574 128.228 274.635C126.161 279.697 118.762 281.535 111.702 278.741C104.642 275.947 100.595 269.579 102.661 264.518C104.728 259.457 112.127 257.619 119.187 260.413Z" fill="white"/>
<path d="M123.665 272.738C125.006 269.624 122.415 265.691 117.88 263.95C113.345 262.209 108.581 263.321 107.246 266.434C105.905 269.548 108.496 273.48 113.031 275.221C117.56 276.958 122.324 275.846 123.665 272.738Z" fill="#276ED8"/>
<path opacity="0.33" d="M119.887 271.287C120.612 269.607 119.211 267.477 116.761 266.541C114.311 265.598 111.738 266.201 111.013 267.88C110.288 269.56 111.69 271.69 114.139 272.626C116.594 273.568 119.162 272.966 119.887 271.287Z" fill="white"/>
<path opacity="0.33" d="M93.5878 237.703C94.1201 236.468 93.092 234.897 91.2838 234.206C89.4813 233.514 87.5854 233.953 87.0534 235.194C86.5211 236.429 87.5492 238 89.3574 238.691C91.1599 239.383 93.0558 238.944 93.5878 237.703Z" fill="white"/>
<path opacity="0.33" d="M142.742 240.02C144.442 239.447 145.354 237.557 144.781 235.797C144.208 234.037 142.361 233.071 140.661 233.644C138.961 234.216 138.049 236.106 138.622 237.866C139.195 239.626 141.042 240.592 142.742 240.02Z" fill="white"/>
<path opacity="0.33" d="M80.9037 241.756C82.6789 242.457 83.7679 243.88 83.3361 244.935C82.9042 245.99 81.115 246.277 79.3398 245.576C77.5646 244.875 76.4756 243.452 76.9074 242.397C77.3393 241.342 79.1284 241.055 80.9037 241.756Z" fill="white"/>
<path opacity="0.33" d="M82.3712 256.82C82.9058 255.696 81.8921 254.283 80.098 253.672C78.3038 253.061 76.4151 253.476 75.8805 254.6C75.3459 255.724 76.3596 257.136 78.1537 257.747C79.9482 258.363 81.831 257.944 82.3712 256.82Z" fill="white"/>
<path d="M153.434 313.937C152.898 313.738 152.35 313.513 151.799 313.255C147.646 311.338 144.883 308.614 145.621 307.172C146.364 305.73 150.327 306.118 154.48 308.035C157.202 309.292 159.311 310.897 160.245 312.259C157.979 312.836 155.706 313.386 153.434 313.937Z" fill="#194484"/>
<path d="M137.959 303.998L135.952 302.476L132.497 303.468L132.248 304.071L137.709 304.602L137.959 303.998Z" fill="#194484"/>
<path d="M137.72 304.654L135.712 303.1L132.256 304.088L134.265 305.641L137.72 304.654Z" fill="#194484"/>
<path d="M142.794 302.632L140.787 301.11L137.332 302.102L137.083 302.705L142.538 303.236L142.794 302.632Z" fill="#194484"/>
<path d="M142.549 303.288L140.547 301.734L137.091 302.722L139.099 304.276L142.549 303.288Z" fill="#194484"/>
<path d="M147.69 301.251L145.683 299.729L142.228 300.721L141.979 301.324L147.44 301.854L147.69 301.251Z" fill="#194484"/>
<path d="M147.452 301.906L145.444 300.353L141.988 301.341L143.996 302.894L147.452 301.906Z" fill="#194484"/>
<path d="M74.4895 254.985C74.4721 254.975 74.4551 254.971 74.4432 254.96C74.3739 254.927 74.5529 255.013 74.4895 254.985Z" fill="#194484"/>
<path opacity="0.43" d="M86.5269 264.876C82.8142 263.168 77.019 259.846 73.4666 257.647C73.4883 257.342 73.51 257.037 73.5426 256.729C77.3279 259.026 84.3256 263.051 87.9481 265.119C87.7409 265.088 86.7676 264.985 86.5269 264.876Z" fill="#276ED8"/>
</g>
<g filter="url(#filter2_d)">
<rect x="295.284" y="165.189" width="55.1695" height="54.2183" rx="6" fill="#06B25F"/>
</g>
<path d="M322.869 180.408C315.086 180.408 308.44 185.141 305.747 191.823C308.44 198.504 315.086 203.237 322.869 203.237C330.651 203.237 337.297 198.504 339.99 191.823C337.297 185.141 330.651 180.408 322.869 180.408ZM322.869 199.432C318.573 199.432 315.086 196.023 315.086 191.823C315.086 187.622 318.573 184.213 322.869 184.213C327.165 184.213 330.651 187.622 330.651 191.823C330.651 196.023 327.165 199.432 322.869 199.432ZM322.869 187.257C320.285 187.257 318.199 189.296 318.199 191.823C318.199 194.349 320.285 196.388 322.869 196.388C325.452 196.388 327.538 194.349 327.538 191.823C327.538 189.296 325.452 187.257 322.869 187.257Z" fill="white"/>
<path fill-rule="evenodd" clip-rule="evenodd" d="M310.503 173.75V170.896L302.991 170.896C302.988 170.896 302.984 170.896 302.981 170.896H300.991V172.896V173.75V180.408H303.845V173.75L310.503 173.75Z" fill="white"/>
<path fill-rule="evenodd" clip-rule="evenodd" d="M335.234 210.847L335.234 213.7L344.746 213.7L344.746 210.847L344.746 210.847L344.746 204.188L341.893 204.188L341.893 210.847L335.234 210.847Z" fill="white"/>
<path fill-rule="evenodd" clip-rule="evenodd" d="M341.893 180.408L344.746 180.408L344.746 170.896L341.893 170.896L341.893 170.896L335.234 170.896L335.234 173.75L341.893 173.75L341.893 180.408Z" fill="white"/>
<path fill-rule="evenodd" clip-rule="evenodd" d="M303.845 204.188L300.991 204.188L300.991 210.847L300.991 213.7L300.991 213.7L303.845 213.7L303.845 213.7L310.503 213.7L310.503 210.847L303.845 210.847L303.845 204.188Z" fill="white"/>
<g clip-path="url(#clip0)">
<path d="M249.833 211.918V206.535C249.833 205.543 249.03 204.741 248.039 204.741C247.047 204.741 246.245 205.544 246.245 206.535V206.589C243.011 201.576 239.494 197.086 237.567 194.724C236.941 193.954 235.811 193.835 235.044 194.468C234.275 195.093 234.161 196.224 234.789 196.991C238.289 201.282 241.055 205.089 243.214 208.421C242.266 208.117 241.267 208.62 240.957 209.556C240.643 210.497 241.151 211.513 242.09 211.825L246.055 213.147C250.006 220.335 250.439 224.493 249.246 225.685C247.974 226.955 243.304 226.515 234.337 221.106C228.902 217.828 222.851 213.303 216.665 207.943C219.205 205.646 221.751 203.228 224.273 200.706C233.266 191.711 240.958 182.413 246.245 174.219V174.239C246.245 175.231 247.047 176.033 248.039 176.033C249.03 176.033 249.833 175.231 249.833 174.239V168.856C249.833 168.688 249.763 168.537 249.718 168.379C253.839 160.62 254.535 155.304 251.783 152.552C246.447 147.217 232.338 156.198 224.403 162.028C223.604 162.613 223.432 163.736 224.019 164.535C224.602 165.331 225.725 165.503 226.526 164.919C239.417 155.452 247.345 153.185 249.246 155.089C250.399 156.243 250.106 160.226 246.014 167.641L242.09 168.949C241.151 169.261 240.643 170.277 240.957 171.218C241.263 172.141 242.241 172.641 243.177 172.358C238.032 180.319 230.526 189.375 221.737 198.168C219.155 200.75 216.551 203.212 213.957 205.549C211.363 203.212 208.759 200.75 206.178 198.168C197.388 189.375 189.882 180.319 184.736 172.358C185.673 172.641 186.65 172.142 186.957 171.218C187.271 170.277 186.763 169.261 185.824 168.949L181.9 167.641C177.808 160.226 177.515 156.243 178.668 155.089C180.574 153.183 188.504 155.454 201.405 164.933C202.201 165.518 203.327 165.346 203.912 164.549C204.499 163.752 204.327 162.629 203.528 162.042C195.59 156.204 181.464 147.212 176.131 152.552C173.379 155.304 174.075 160.621 178.196 168.379C178.151 168.537 178.081 168.688 178.081 168.856V174.239C178.081 175.231 178.883 176.033 179.875 176.033C180.866 176.033 181.669 175.231 181.669 174.239V174.219C186.955 182.413 194.648 191.711 203.641 200.706C206.163 203.228 208.709 205.646 211.249 207.943C205.063 213.303 199.012 217.828 193.577 221.106C184.601 226.519 179.933 226.948 178.668 225.685C177.476 224.492 177.909 220.334 181.86 213.146L185.824 211.825C186.763 211.513 187.271 210.497 186.957 209.556C186.647 208.621 185.649 208.118 184.702 208.421C186.85 205.103 189.601 201.317 193.08 197.049C193.705 196.281 193.589 195.151 192.822 194.524C192.057 193.9 190.927 194.019 190.298 194.781C188.381 197.133 184.886 201.598 181.669 206.586V206.535C181.669 205.543 180.867 204.741 179.875 204.741C178.883 204.741 178.081 205.543 178.081 206.535V211.918C178.081 212.111 178.154 212.286 178.213 212.464C174.849 218.826 172.978 225.069 176.131 228.222C177.231 229.322 178.74 229.871 180.651 229.871C184.203 229.871 189.147 227.97 195.43 224.18C201.136 220.737 207.489 215.968 213.957 210.336C220.425 215.968 226.777 220.737 232.483 224.18C238.767 227.972 243.71 229.873 247.264 229.871C249.174 229.871 250.682 229.322 251.782 228.222C254.935 225.07 253.066 218.829 249.701 212.465C249.76 212.286 249.833 212.111 249.833 211.918Z" fill="#84B5FF"/>
<path d="M196.014 174.247C196.014 175.239 196.816 176.042 197.808 176.042C198.8 176.042 199.602 175.239 199.602 174.247C199.602 173.257 200.407 172.453 201.397 172.453C202.387 172.453 203.191 173.257 203.191 174.247C203.191 175.237 202.387 176.042 201.397 176.042C200.405 176.042 199.602 176.844 199.602 177.836C199.602 178.828 200.405 179.63 201.397 179.63C202.387 179.63 203.191 180.435 203.191 181.425C203.191 182.415 202.387 183.219 201.397 183.219C200.407 183.219 199.602 182.415 199.602 181.425C199.602 180.433 198.8 179.63 197.808 179.63C196.816 179.63 196.014 180.433 196.014 181.424C196.014 184.393 198.428 186.807 201.396 186.807C204.365 186.807 206.779 184.393 206.779 181.424C206.779 180.047 206.259 178.789 205.406 177.836C206.259 176.883 206.779 175.624 206.779 174.247C206.779 171.279 204.365 168.864 201.396 168.864C198.428 168.864 196.014 171.279 196.014 174.247Z" fill="#84B5FF"/>
<path d="M226.517 186.807C229.485 186.807 231.9 184.393 231.9 181.424V174.247C231.9 171.279 229.485 168.864 226.517 168.864C223.548 168.864 221.134 171.279 221.134 174.247V181.424C221.134 184.393 223.548 186.807 226.517 186.807ZM224.723 174.247C224.723 173.257 225.527 172.453 226.517 172.453C227.507 172.453 228.311 173.257 228.311 174.247V181.425C228.311 182.415 227.507 183.219 226.517 183.219C225.527 183.219 224.723 182.415 224.723 181.425V174.247Z" fill="#84B5FF"/>
<path d="M213.957 186.807C216.925 186.807 219.34 184.393 219.34 181.424C219.34 178.456 216.925 176.042 213.957 176.042C213.406 176.042 212.884 176.149 212.383 176.304C212.788 174.671 213.976 172.453 217.545 172.453C218.537 172.453 219.34 171.65 219.34 170.659C219.34 169.667 218.537 168.864 217.545 168.864C210.449 168.864 208.574 174.732 208.574 177.836V181.424C208.574 184.393 210.988 186.807 213.957 186.807ZM213.957 179.63C214.947 179.63 215.751 180.435 215.751 181.425C215.751 182.415 214.947 183.219 213.957 183.219C212.967 183.219 212.162 182.415 212.162 181.424C212.162 180.435 212.967 179.63 213.957 179.63Z" fill="#84B5FF"/>
<path d="M239.077 168.864C239.077 166.886 237.467 165.276 235.488 165.276C233.51 165.276 231.9 166.886 231.9 168.864C231.9 170.843 233.51 172.453 235.488 172.453C237.467 172.453 239.077 170.843 239.077 168.864Z" fill="#84B5FF"/>
</g>
<defs>
<filter id="filter0_d" x="389.365" y="44.6368" width="135.466" height="101.932" filterUnits="userSpaceOnUse" color-interpolation-filters="sRGB">
<feFlood flood-opacity="0" result="BackgroundImageFix"/>
<feColorMatrix in="SourceAlpha" type="matrix" values="0 0 0 0 0 0 0 0 0 0 0 0 0 0 0 0 0 0 127 0" result="hardAlpha"/>
<feOffset dy="4"/>
<feGaussianBlur stdDeviation="4"/>
<feColorMatrix type="matrix" values="0 0 0 0 0.0223125 0 0 0 0 0.00468749 0 0 0 0 0.225 0 0 0 0.25 0"/>
<feBlend mode="normal" in2="BackgroundImageFix" result="effect1_dropShadow"/>
<feBlend mode="normal" in="SourceGraphic" in2="effect1_dropShadow" result="shape"/>
</filter>
<filter id="filter1_d" x="59.5399" y="214.826" width="128.97" height="111.238" filterUnits="userSpaceOnUse" color-interpolation-filters="sRGB">
<feFlood flood-opacity="0" result="BackgroundImageFix"/>
<feColorMatrix in="SourceAlpha" type="matrix" values="0 0 0 0 0 0 0 0 0 0 0 0 0 0 0 0 0 0 127 0" result="hardAlpha"/>
<feOffset dy="4"/>
<feGaussianBlur stdDeviation="4"/>
<feColorMatrix type="matrix" values="0 0 0 0 0.0771528 0 0 0 0 0.152763 0 0 0 0 0.420833 0 0 0 0.25 0"/>
<feBlend mode="normal" in2="BackgroundImageFix" result="effect1_dropShadow"/>
<feBlend mode="normal" in="SourceGraphic" in2="effect1_dropShadow" result="shape"/>
</filter>
<filter id="filter2_d" x="289.284" y="159.189" width="77.1695" height="76.2183" filterUnits="userSpaceOnUse" color-interpolation-filters="sRGB">
<feFlood flood-opacity="0" result="BackgroundImageFix"/>
<feColorMatrix in="SourceAlpha" type="matrix" values="0 0 0 0 0 0 0 0 0 0 0 0 0 0 0 0 0 0 127 0" result="hardAlpha"/>
<feMorphology radius="3" operator="dilate" in="SourceAlpha" result="effect1_dropShadow"/>
<feOffset dx="5" dy="5"/>
<feGaussianBlur stdDeviation="4"/>
<feColorMatrix type="matrix" values="0 0 0 0 0 0 0 0 0 0 0 0 0 0 0 0 0 0 0.2 0"/>
<feBlend mode="normal" in2="BackgroundImageFix" result="effect1_dropShadow"/>
<feBlend mode="normal" in="SourceGraphic" in2="effect1_dropShadow" result="shape"/>
</filter>
<clipPath id="clip0">
<rect width="78.9494" height="78.9494" fill="white" transform="translate(174.482 150.921)"/>
</clipPath>
</defs>
</svg>
